<?xml version="1.0" standalone="no"?>
<!DOCTYPE svg PUBLIC "-//W3C//DTD SVG 1.1//EN" "http://www.w3.org/Graphics/SVG/1.1/DTD/svg11.dtd" >
<svg xmlns="http://www.w3.org/2000/svg">
<defs>
  <font id="icon" horiz-adv-x="408.78">
    <font-face font-family="icon"
      units-per-em="1001" ascent="1001"
      descent="0" />
    <missing-glyph horiz-adv-x="0" />
    <glyph glyph-name="about"
      unicode="&#xE001;"
      horiz-adv-x="1001" d="M595.3280666666666 783.2491333333334C642.6086333333334 753.5194333333334 675.7751000000001 703.3693333333333 681.8144666666666 645.0444C701.1003999999999 636.0687666666668 722.5551666666667 630.9303 745.2111333333332 630.9303C828.0939333333333 630.9303 895.2610333333332 698.0974 895.2610333333332 780.8801C895.2610333333332 863.7962666666667 828.0939333333333 930.93 745.2111333333332 930.93C663.0957666666667 930.93 596.5626333333333 865.0308333333334 595.3280666666666 783.2491333333334M507.2400666666667 476.0756C590.1562333333334 476.0756 657.3233333333333 543.1759666666667 657.3233333333333 626.1255C657.3233333333333 708.9415666666666 590.1562333333333 776.0753 507.2400666666666 776.0753C424.424 776.0753 357.2235333333333 708.9415666666666 357.2235333333333 626.0254C357.2235333333333 543.1426 424.4240000000001 476.0756 507.2400666666667 476.0756M570.9370333333334 465.7986666666667H443.6098333333334C337.7040333333335 465.7986666666667 251.4845666666667 379.5792 251.4845666666667 273.6400333333334V117.9511666666666L251.9183333333334 115.5154L262.6290333333334 112.0786333333333C363.6966666666667 80.6138666666666 451.5511000000001 70.0366333333332 523.8566666666667 70.0366333333332C665.0310333333334 70.0366333333332 746.8794666666666 110.2434666666665 751.9512000000001 112.8460666666666L761.9612000000001 117.8844333333333H762.9622000000002V273.6066666666667C763.0289333333333 379.5792 676.8428333333334 465.7986666666667 570.9370333333334 465.7986666666667M808.9081 620.6533666666667H682.5818999999999C681.2138666666666 570.1362333333334 659.6256333333333 524.5907333333334 625.4915333333333 491.8580333333334C719.6522666666666 463.8634000000001 788.5878 376.6095666666668 788.5878 273.4398333333334V225.4585666666667C913.3124 230.0631666666668 985.1842 265.3651000000001 989.9222666666668 267.8008666666666L999.8655333333332 272.8392333333333H1001V428.5614666666667C1001 534.5006333333333 914.8139000000002 620.6533666666667 808.9081 620.6533666666667M255.7555 630.8635666666667C285.1515333333333 630.8635666666667 312.4788333333334 639.4721666666667 335.5685666666667 654.0534C342.9426000000001 702.0012999999999 368.7016666666667 743.9098333333334 405.3716333333334 772.5050666666666C405.5051000000001 775.3078666666667 405.8387666666667 778.0439333333334 405.8387666666667 780.8801C405.8387666666667 863.7295333333334 338.6383 930.93 255.7555 930.93C172.9394333333334 930.93 105.7389666666667 863.7295333333334 105.7389666666667 780.8801C105.7389666666667 698.0974 172.9394333333334 630.8635666666667 255.7555 630.8635666666667M390.5902 491.8246666666666C356.6229333333333 524.4572666666667 335.0680666666667 569.7024666666666 333.5332 619.9193C328.8285 620.2529666666667 324.1905333333333 620.6200000000001 319.4524666666666 620.6200000000001H192.1252666666667C86.1527333333333 620.6533666666667 0 534.5006333333333 0 428.5614666666667V272.8392333333333L0.3670333333333 270.4702L11.0777333333333 267.1001666666666C92.1921 241.7081333333333 164.5644 230.1298999999999 227.4605666666667 226.4261999999999V273.3730999999999C227.4605666666667 376.5762000000001 296.3627333333333 463.8634000000001 390.5902 491.8246666666666" />
    <glyph glyph-name="arrow-end"
      unicode="&#xE002;"
      horiz-adv-x="1149.5682844243795" d="M40.1077878103838 0L0 40.1077878103836L488.0722347629797 527.6151241534988L28.8098194130926 959.762415349887L67.7878103837472 1001L568.8527088036118 529.3098194130926L40.1077878103838 0zM435.5366817155757 0L395.4288939051919 40.1077878103836L883.5011286681716 527.6151241534988L424.2387133182845 959.762415349887L463.216704288939 1001L964.2816027088036 529.3098194130926L435.5366817155757 0zM1093.0784424379235 980.6636568848758H1149.5682844243795V20.3363431151241H1093.0784424379235V980.6636568848758z" />
    <glyph glyph-name="arrow-endR"
      unicode="&#xE003;"
      horiz-adv-x="1153.6949152542372" d="M582.5028248587571 531.6045197740114L1080.175141242938 1001L1119.7627118644068 961.4124293785312L661.6779661016949 525.9491525423729L1153.6949152542372 39.5875706214689L1108.45197740113 0zM186.6271186440678 531.6045197740114L689.954802259887 1001L723.8870056497176 961.4124293785312L265.8022598870057 525.9491525423729L757.819209039548 39.5875706214689L712.5762711864406 0zM0 978.3785310734464H56.5536723163842V16.9661016949153H0V978.3785310734464z" />
    <glyph glyph-name="arrow-right-01"
      unicode="&#xE004;"
      horiz-adv-x="1454.6017972972973" d="M1434.7914662162161 548.3180405405406L1001.9266013513515 981.1829054054054C975.5083175675674 1007.6011891891892 932.68175 1007.6011891891892 906.2837567567568 981.1829054054054C879.865472972973 954.7646216216216 879.865472972973 911.965108108108 906.2837567567568 885.5400608108108L1223.6683918918918 568.1351351351352H67.6351351351351C30.28025 568.1351351351352 0 537.8548851351352 0 500.5C0 463.1383513513514 30.28025 432.8648648648649 67.6351351351351 432.8648648648649H1223.6683918918918L906.2837567567566 115.4531756756757C879.8654729729727 89.0348918918919 879.8654729729727 46.2353783783783 906.2837567567566 19.8035675675676C919.4928986486486 6.5944256756757 936.8007297297296 -0.0067635135135 954.101797297297 -0.0067635135135S988.7377499999998 6.5944256756757 1001.9198378378376 19.8035675675676L1434.7847027027024 452.6684324324325C1461.20975 479.1002432432433 1461.20975 521.8997567567568 1434.7914662162161 548.3180405405406" />
    <glyph glyph-name="arrow"
      unicode="&#xE005;"
      horiz-adv-x="568.8527088036118" d="M40.1077878103838 0L0 40.1077878103836L488.0722347629797 527.6151241534988L28.8098194130926 959.762415349887L67.7878103837472 1001L568.8527088036118 529.3098194130926L40.1077878103838 0z" />
    <glyph glyph-name="arrowR"
      unicode="&#xE006;"
      horiz-adv-x="571.1920903954802" d="M0 531.6045197740114L503.3276836158192 1001L542.9152542372881 961.4124293785312L79.1751412429378 525.9491525423729L571.1920903954802 39.5875706214689L531.6045197740114 0z" />
    <glyph glyph-name="arrow_down-01"
      unicode="&#xE007;"
      horiz-adv-x="1155.907848650782" d="M1155.9078486507822 1001L577.953924325391 0L0 1001z" />
    <glyph glyph-name="arrow_left"
      unicode="&#xE008;"
      horiz-adv-x="1024.9630486914816" d="M692.5488061724533 14.7994786779273C703.9249921801688 3.4650401417996 719.3924304035032 -2.5257220310708 734.2962777604002 -2.5257220310708C749.3044937962673 -2.5257220310708 764.8345532269835 3.4650401417996 776.1898654989051 14.7994786779273C799.5058283807734 38.0528203524136 799.5058283807734 75.1245751225107 776.1898654989051 98.3779167969972L374.2034615785631 500.4060681889271L776.1898654989052 902.392472109269C799.5058283807737 925.7293087269315 799.5058283807737 962.7384422896466 776.1898654989052 986.012657699927C752.8321551454488 1009.3494943175893 715.8647690543218 1009.3494943175893 692.5488061724534 986.012657699927L248.7731831925764 542.1952872484621C225.436346574914 518.9419455739755 225.436346574914 481.9536857470546 248.7731831925764 458.5751016578042L692.5488061724533 14.7994786779273z" />
    <glyph glyph-name="arrow_left_short-01"
      unicode="&#xE009;"
      horiz-adv-x="1024.9839224272755" d="M672.0299238869774 25.4450839328538C689.0002710874779 8.5164842039413 712.0240016682305 -0.3966009800854 734.2545302888125 -0.3966009800854C756.6103013241581 -0.3966009800854 779.7801480554687 8.5373579397352 796.6878740485872 25.4450839328538C831.4217704097592 60.0746116150558 831.4217704097592 115.3273902617037 796.6878740485872 150.0195391512876L415.2620998853091 500.3851944531331L765.5860077155667 850.6673548118027C800.3199040767386 885.4638723803566 800.3199040767386 940.6331560838286 765.5860077155667 975.3461787092066C730.7477426754249 1010.1218225419664 675.6410801793348 1010.1218225419664 640.9071838181628 975.3461787092066L228.2751746428944 562.6724220623502C193.4786570743405 528.0011469085601 193.4786570743405 472.8527369408821 228.2751746428944 438.0353456365343L672.0299238869774 25.4450839328538z" />
    <glyph glyph-name="arrow_right-hollow"
      unicode="&#xE00A;"
      horiz-adv-x="1024.9630486914816" d="M192.9150662079033 0.0417474715879C152.5870086539464 0.0417474715879 116.8720467104578 16.9285997289124 92.0740485872172 47.6338650818476C69.8852674382234 75.2289438014806 58.2168491293922 112.4259409863413 58.2168491293922 155.1336044208112L58.4255864873319 845.0314461474298C58.5299551663018 936.354040246064 113.9497236993014 1000.1024293608592 193.2281722448129 1000.1024293608592C222.3887811489939 1000.1024293608592 252.1756021269941 991.3563340631842 281.9832968407883 974.218996976332L881.9362110311752 628.883912000834C935.8739443228028 597.8029194036076 966.8296945052654 550.8161401313732 966.7461995620896 499.9677197372537C966.7461995620896 449.0775518715463 935.8113231154208 402.0907725993119 881.9362110311752 371.0932749452612L281.6701908038786 25.8625586487332C251.8624960900845 8.683474090293 222.0756751120842 0.0417474715879 192.9150662079033 0.0417474715879zM193.2281722448129 875.1939943697216C191.4539047023251 875.1939943697216 190.5145865915963 874.880888332812 190.3058492336565 874.7765196538421C188.9490564070483 873.9624439578772 183.3340214784694 865.7381920550516 183.3340214784694 844.989698675842L183.1252841205297 155.154478156605C183.1252841205297 134.4477322489834 188.7611927849025 126.1817328745699 190.1179856115108 125.263288499635C190.3267229694505 125.158919820665 191.2660410801793 124.9293087269314 192.9150662079033 124.9293087269314C196.1504952559691 124.9293087269314 205.0009592326139 125.7642581586903 219.3829631946617 134.00938379731L819.6281096861642 479.3027213012199C837.141174017308 489.447356897091 841.7333958919821 498.3604420811177 841.942133249922 500.0303409446356C841.7125221561881 501.5541236575956 837.1411740173081 510.4880825774163 819.6281096861642 520.6118444374935L219.6751954957773 866.0304243561673C205.2931915337296 874.2546762589928 196.3592326139089 875.1939943697216 193.2281722448129 875.1939943697216z" />
    <glyph glyph-name="back"
      unicode="&#xE00B;"
      horiz-adv-x="1001" d="M641.1405 742.2415H375.375V893.893C375.375 905.4045 368.368 915.915 357.8575 921.4205C346.8465 926.4255 334.334 924.924 324.8245 917.917L12.012 675.1745000000001C4.5045 669.669 0 660.6600000000001 0 651.6510000000001C0 642.642 4.5045 633.633 11.5115 628.1275L324.324 386.3860000000001C329.8295 381.8815 336.8365 379.8795 343.8435 379.8795C348.348 379.8795 352.8525 380.8805000000001 357.3570000000001 382.8825000000001C368.3680000000001 387.8875000000001 374.8745 398.398 374.8745 410.41V561.0605H647.1465000000001C728.7280000000001 561.0605 803.3025 504.0035 811.811 425.4250000000001C821.3205000000002 334.8345000000001 747.747 258.2580000000001 656.1555000000001 258.2580000000001H405.9055000000002C388.8885000000001 258.2580000000001 374.8745000000001 244.7445 374.8745000000001 228.228V107.1070000000001C374.8745000000001 90.09 388.8885000000001 76.5765000000001 405.9055000000002 76.5765000000001H656.1555000000001C857.3565 76.5765000000001 1018.5175000000002 244.7445 998.4975000000002 442.9425000000001C981.4805 616.1155 820.8199999999999 742.2415 641.1405 742.2415z" />
    <glyph glyph-name="bin"
      unicode="&#xE00C;"
      horiz-adv-x="1001" d="M841.2984761883031 738.476321403717H185.6440281564807C162.7658988663632 738.476321403717 147.6495841557049 720.2575648675269 151.8521556592473 697.7715233173233L274.6745918565252 40.7047980863937C278.8771633600676 18.2187565361901 300.8264634410688 0 323.681752668667 0H710.1584505569308C733.0365798470483 0 754.8183861362417 18.2606299841422 758.8153970771108 40.7885449822977L875.4862431025368 697.7296498693713C879.4794473663194 720.215691419575 864.1575720929878 738.476321403717 841.2984761883031 738.476321403717zM397.7025886164763 87.3556257819661C380.3936279039698 84.3102841127325 363.5186283793291 97.9762548534183 359.9974520742777 117.9575028806772L273.3079947824566 609.4870683262409C269.8096585399245 629.426442905548 280.9670290805791 648.0791606296038 298.2797964701722 651.1435356842701C315.5887571826787 654.1660372909845 332.4409166448002 640.481033164866 335.9620929498515 620.5416585855589L422.6515502416726 128.989253077476C426.1689198696375 109.0308451127362 414.9887092664636 90.4200008366324 397.7025886164763 87.3556257819661zM545.4511463764313 119.6933476321405C545.4511463764313 99.4227921463042 531.2065607185912 83.0236272574813 513.62732593294 83.0236272574813C496.0709312098084 83.0236272574813 481.8263455519681 99.4418255317369 481.8263455519681 119.6933476321405V618.8248472195286C481.8263455519681 639.0535292574127 496.0709312098084 655.4945675941877 513.62732593294 655.4945675941877C531.206560718591 655.4945675941877 545.4511463764313 639.076369319932 545.4511463764313 618.8248472195286V119.6933476321405zM758.23297548287 609.4870683262409L671.5625515764815 117.9575028806774C668.0413752714301 97.9762548534184 651.1473423613567 84.314090789819 633.8383816488501 87.3556257819662C616.5712943842957 90.4009674511998 605.3682437186025 109.0346517898229 608.8894200236539 128.9930597545626L695.6017173779943 620.5454652626456C699.1228936830456 640.4848398419526 715.9750531451671 654.1698439680711 733.2840138576736 651.1473423613568C750.5929745701801 648.0791606296038 761.7541517879214 629.426442905548 758.23297548287 609.4870683262409zM687.1318608604383 875.7717438840275C681.0868576470097 882.7493829836591 676.7586657996113 891.4666735118403 674.6878334645324 900.8463258530797C651.6003369346552 1006.4397415566687 539.8172642883491 1000.9543198749614 539.8172642883491 1000.9543198749614H463.6228157241243C360.6978806582015 1000.9543198749614 331.6719678733187 942.6512536174841 324.0319669606289 900.9719461969356C322.3341889800311 891.6151339182154 318.5046718309699 882.9397168379861 312.9964100867436 875.9811111237874C303.4911374016482 864.0547918116513 271.8348107499648 860.9904167569849 248.9376480744146 860.9904167569849H120.0511752782753C97.1730459881579 860.9904167569849 78.6421419308714 843.5977091485745 78.6421419308714 822.1699238284295S97.1730459881579 783.3494308998742 120.0511752782753 783.3494308998742H880.9526313988111C903.8117273034958 783.3494308998742 922.361664746215 800.7421385082846 922.361664746215 822.1699238284295S903.8117273034958 860.9904167569849 880.9526313988111 860.9904167569849H752.0851919881046C729.2032560209005 860.9866100798984 697.341368806544 863.9672382386608 687.1318608604383 875.7717438840275zM452.5263520168543 933.7245958495432H495.0964218756536H537.6664917344528C573.7347571294383 933.7245958495432 591.7251130404359 917.1389037834796 600.7126776417616 899.6852893416844C605.2883034997851 890.8043116987819 603.9826132591013 882.0641811080815 599.1823934529718 875.0675086230173C591.043717841945 863.2249362067851 559.4102312527809 861.0094501424177 536.5511353480962 861.0094501424177H453.6911952053363C430.8320993006515 861.0094501424177 399.1757726489682 863.2059028213523 391.0599371004606 875.0675086230173C386.2559106172446 882.0870211706008 384.9502203765607 890.8233450842147 389.5296529116707 899.6852893416844C398.4448906483521 917.1389037834796 416.4390532364361 933.7245958495432 452.5263520168543 933.7245958495432z" />
    <glyph glyph-name="building"
      unicode="&#xE00D;"
      horiz-adv-x="1001" d="M966.4655 137.6375000000001H912.912V885.3845C912.912 911.4105 891.8910000000001 932.4315 865.865 932.4315H545.545C519.519 932.4315 498.4979999999999 911.4105 498.4979999999999 885.3845V715.715C492.492 734.7339999999999 474.474 748.2475 453.9534999999999 748.2475H133.6335C107.6075 748.2475 86.5865 727.2265 86.5865 701.2005V137.6375000000001H34.034C-11.5115 137.6375000000001 -11.5115 68.5685 34.034 68.5685H966.4655000000002C1012.011 68.5685 1012.011 137.6375000000001 966.4655 137.6375000000001zM159.6595 686.1855H265.265V580.5799999999999H159.6595V686.1855zM159.6595 527.527H265.265V421.9215000000001H159.6595V527.527zM159.6595 368.8685000000001H265.265V263.2630000000001H159.6595V368.8685000000001zM334.8345000000001 137.6375000000001H248.7485V210.21H334.8345000000001V137.6375000000001zM423.423 263.2630000000001H317.8175V368.8685H423.423V263.2630000000001zM423.423 421.9215000000001H317.8175V527.527H423.423V421.9215000000001zM423.423 580.5799999999999H317.8175V686.1855H423.423V580.5799999999999zM574.0735 844.844H679.6790000000001V739.2385H574.0735000000001V844.844zM574.0735 686.1855H679.6790000000001V580.5799999999999H574.0735000000001V686.1855zM574.0735 527.527H679.6790000000001V421.9215000000001H574.0735000000001V527.527zM574.0735 368.8685000000001H679.6790000000001V263.2630000000001H574.0735000000001V368.8685000000001zM749.2484999999999 137.6375000000001H663.1625V210.21H749.2484999999999V137.6375000000001zM838.3375 263.2630000000001H732.732V368.8685H838.3375V263.2630000000001zM838.3375 421.9215000000001H732.732V527.527H838.3375V421.9215000000001zM838.3375 580.5799999999999H732.732V686.1855H838.3375V580.5799999999999zM838.3375 739.2385H732.732V844.844H838.3375V739.2385z" />
    <glyph glyph-name="case_packeg"
      unicode="&#xE00E;"
      horiz-adv-x="1167.8673809523812" d="M43.0361904761905 791.1645238095238C14.3340476190476 762.4964285714285 0 728.142380952381 0 688.2045238095238V145.9621428571428C0 105.9902380952381 14.3340476190476 71.6702380952381 43.0361904761905 43.0361904761904C71.7042857142857 14.3340476190475 106.0242857142857 0 145.9961904761905 0H166.867380952381V834.1666666666666H145.9961904761905C106.0242857142857 834.1666666666666 71.6702380952381 819.832619047619 43.0361904761905 791.1645238095238M834.1666666666667 938.4545238095238C834.1666666666667 955.8528571428571 828.1061904761905 970.5954761904762 815.9511904761905 982.7845238095238C803.7621428571429 994.9395238095238 789.0195238095239 1001 771.6211904761906 1001H396.2461904761905C378.8819047619048 1001 364.0711904761905 994.9395238095238 351.9161904761906 982.7845238095238C339.7611904761905 970.5614285714286 333.7007142857143 955.8528571428571 333.7007142857143 938.4545238095238V834.1666666666666H229.3788095238096V0H938.4885714285716V834.1666666666666H834.1666666666667V938.4545238095238zM417.0833333333334 917.617380952381H750.7840476190478V834.2007142857143H417.0833333333334V917.617380952381zM834.1666666666667 354.5378571428571C834.1666666666667 348.4092857142857 832.2259523809525 343.4383333333333 828.3445238095239 339.5228571428572C824.4290476190478 335.6414285714286 819.4240476190477 333.7007142857143 813.3635714285715 333.7007142857143H667.367380952381V187.7045238095238C667.367380952381 181.6100000000001 665.3926190476191 176.605 661.5111904761904 172.7235714285714S652.5907142857143 166.8673809523809 646.530238095238 166.8673809523809H521.405238095238C515.3447619047618 166.8673809523809 510.3397619047619 168.8421428571428 506.4242857142856 172.7235714285714C502.5088095238095 176.605 500.5680952380952 181.6440476190476 500.5680952380952 187.7045238095238V333.6666666666665H354.5719047619047C348.4773809523809 333.6666666666665 343.5064285714285 335.6073809523808 339.5909523809523 339.4888095238095C335.6754761904761 343.4042857142855 333.7347619047618 348.4092857142856 333.7347619047618 354.5038095238093V479.6288095238094C333.7347619047618 485.7233333333332 335.6754761904761 490.6942857142856 339.5909523809523 494.6097619047617C343.5064285714285 498.525238095238 348.4773809523809 500.4659523809523 354.5719047619047 500.4659523809523H500.5V646.4621428571427C500.5 652.522619047619 502.4747619047619 657.5276190476189 506.3902380952381 661.4430952380951C510.3057142857143 665.3585714285714 515.2766666666666 667.3333333333333 521.3711904761905 667.3333333333333H646.4961904761906C652.5907142857143 667.3333333333333 657.5616666666667 665.3585714285714 661.4771428571429 661.4430952380951C665.3585714285715 657.5276190476189 667.3333333333335 652.522619047619 667.3333333333335 646.4621428571427V500.5H813.329523809524C819.3900000000002 500.5 824.3950000000001 498.5592857142857 828.2764285714287 494.6438095238095C832.1919047619049 490.7283333333333 834.1326190476192 485.7573809523809 834.1326190476192 479.6628571428571V354.5378571428571zM1124.865238095238 791.1645238095238C1096.1630952380954 819.832619047619 1061.8771428571429 834.1666666666666 1021.9052380952382 834.1666666666666H1001V0H1021.8711904761903C1061.8430952380952 0 1096.1630952380954 14.3340476190475 1124.8311904761906 43.0361904761904C1153.4992857142859 71.7042857142856 1167.8333333333333 106.0242857142857 1167.8333333333333 145.9621428571428V688.2045238095238C1167.8673809523812 728.142380952381 1153.5333333333335 762.4964285714285 1124.865238095238 791.1645238095238" />
    <glyph glyph-name="declare"
      unicode="&#xE00F;"
      horiz-adv-x="1001" d="M912.75184 1001H529.6891599999999V833.8129799999999C593.1926 841.9010599999999 645.0043599999999 795.75496 646.8862399999999 738.71798C648.9883399999999 675.9753000000001 594.7141199999999 624.8242 529.6891599999999 635.0744400000001V529.94942H676.2555799999999C697.4167199999999 529.94942 711.9712599999999 506.7062 702.48178 487.50702L696.31562 475.1346600000001C689.40872 461.42096 690.2896 445.46502 698.5978999999999 432.4920600000001C706.9862799999999 419.4190000000001 720.3396199999999 412.79238 736.4957599999999 412.7123000000001C755.0743199999998 413.3329200000001 765.1243599999999 425.6852600000001 769.44868 432.9725400000001C777.8770999999999 447.1066600000001 778.65788 464.8644 771.4306599999999 479.2788C766.5257599999999 489.1286400000001 767.0662999999998 488.40792 767.0662999999998 488.40792C757.9371799999998 508.16766 773.0923199999999 529.94942 793.5327399999999 529.94942H1000.7197199999998V913.03212C1000.71972 961.62066 961.38042 1001 912.75184 1001zM269.3691 647.1465000000001C330.08976 645.16452 372.59222 588.4278400000001 365.20484 529.94942H471.0706V676.55588C471.0706 697.33664 494.1937 712.43172 513.513 702.76206L525.88536 696.5959C539.5790400000001 689.64896 555.555 690.56988 568.5079400000001 698.87818C581.6210400000001 707.26656 588.82824 721.1003800000001 588.30772 736.81608C587.6871000000001 755.3546 575.3347600000001 765.40464 568.0474800000001 769.74898C553.9934400000001 778.15738 536.2357000000001 778.9581800000001 521.7412200000001 771.771L513.4929800000001 767.60684C494.1736800000001 757.9572000000001 471.0505800000001 773.0723 471.0505800000001 793.81302V1001H87.96788C39.37934 1001 0 961.62066 0 913.03212V529.9494199999999H165.12496C155.41526 591.57098 204.64444 649.60896 269.3691 647.1465000000001zM738.4377 354.1137600000001C677.39672 351.2108600000001 624.44382 405.7453400000001 634.7340999999999 471.3108400000001H529.6891599999999V324.7444200000001C529.6891599999999 303.1828800000001 506.88638 288.7084200000002 487.2467599999999 298.4982000000001L474.8744 304.6843800000001C461.14068 311.59128 445.16472 310.69038 432.25182 302.4021000000002C419.1387199999999 294.0137200000002 411.9115 280.19992 412.45204 264.4842200000002C413.07266 245.9256800000002 425.4249999999999 235.8956600000002 432.7122799999999 231.5313000000001C446.8463999999999 223.1028800000002 464.62416 222.2620400000001 479.0185399999999 229.5493200000002L487.2667799999999 233.6534200000001C506.7262199999999 243.4632200000002 529.70918 229.1289000000002 529.70918 207.4072000000001V0.2402400000002H912.77186C961.40044 0.2402400000002 1000.75976 39.6195800000002 1000.75976 88.2281400000003V471.3108400000001H833.57274C841.6007599999999 407.76736 795.47468 355.99564 738.4377 354.1137600000001zM353.8535 262.5623000000001C351.63128 328.74842 410.69028 376.4761000000001 471.05058 366.7664V471.3108400000001H324.46414C302.74244 471.3108400000001 288.46818 494.2537600000001 298.23794 513.75324L302.34204 521.9814600000001C309.54924 536.41588 308.78848 554.1335800000002 300.38008 568.28772C296.01572 575.59502 285.96568 587.9273400000001 267.42716 588.56798C251.57132 588.16758 237.89766 581.8813 229.48926 568.7682C221.20098 555.8152600000001 220.34012 539.87934 227.20698 526.14562L233.41318 513.7732599999999C243.20296 494.27378 228.88866 471.33086 207.18698 471.33086H0V88.26818C0 39.65962 39.37934 0.2802799999999 87.96788 0.2802799999999H471.0505800000001V166.70654C410.8104 159.49934 355.77542 203.06286 353.8535 262.5623000000001z" />
    <glyph glyph-name="document"
      unicode="&#xE010;"
      horiz-adv-x="1001" d="M891.3905 735.2345C896.3955 730.2294999999999 901.901 723.2225000000001 906.906 715.2145H643.1425V978.4775C651.1505 973.4725 658.1575 967.967 663.1625 962.962L891.3905 735.2345zM625.625 643.643H929.4284999999998V53.5535C929.4284999999998 38.5385 924.4234999999998 26.026 913.9129999999998 15.5155C903.4025 5.005 890.89 0 875.875 0H125.125C110.11 0 97.5975 5.005 87.087 15.5155C76.5765 26.026 71.5715 38.5385 71.5715 53.5535V947.4465C71.5715 962.4615 76.5765 974.974 87.087 985.4845C97.5975 995.995 110.11 1001 125.125 1001H572.0715V697.1965C572.0715 682.1814999999999 577.0765 669.669 587.587 659.1585C598.0975 648.6479999999999 610.61 643.643 625.625 643.643zM715.2145 232.2320000000001V267.7675000000001C715.2145 272.7725000000001 713.713 277.2770000000001 710.2095 280.7805C706.706 284.2839999999999 702.702 285.7855 697.1965 285.7855H303.8035C298.7985 285.7855 294.2940000000001 284.2839999999999 290.7905 280.7805C287.287 277.2770000000001 285.7855 273.273 285.7855 267.7675000000001V232.2320000000001C285.7855 227.2270000000001 287.287 222.7225 290.7905 219.2190000000001S298.298 214.2140000000001 303.8035 214.2140000000001H697.1965C702.2015 214.2140000000001 706.706 215.7155000000001 710.2095 219.2190000000001S715.2145 227.2270000000001 715.2145 232.2320000000001zM715.2145 375.375V410.9105C715.2145 415.9155 713.713 420.42 710.2095 423.9235C706.706 427.427 702.702 428.9285 697.1965 428.9285H303.8035C298.7985 428.9285 294.2940000000001 427.427 290.7905 423.9235C287.287 420.42 285.7855 416.416 285.7855 410.9105V375.375C285.7855 370.37 287.287 365.8655 290.7905 362.3620000000001C294.2940000000001 358.8585000000001 298.298 357.3570000000001 303.8035 357.3570000000001H697.1965C702.2015 357.3570000000001 706.706 358.8585000000001 710.2095 362.3620000000001C713.2125 365.8655 715.2145 370.37 715.2145 375.375zM715.2145 518.518V554.0535C715.2145 559.0585 713.713 563.563 710.2095 567.0664999999999C706.706 570.5699999999999 702.702 572.0714999999999 697.1965 572.0714999999999H303.8035C298.7985 572.0714999999999 294.2940000000001 570.5699999999999 290.7905 567.0664999999999C287.287 563.5629999999999 285.7855 559.559 285.7855 554.0535V518.518C285.7855 513.5129999999999 287.287 509.0085 290.7905 505.505S298.298 500.5 303.8035 500.5H697.1965C702.2015 500.5 706.706 502.0015 710.2095 505.505S715.2145 513.0125 715.2145 518.518z" />
    <glyph glyph-name="dot"
      unicode="&#xE011;"
      horiz-adv-x="983.04206" d="M981.8809 542.70216C972.7718 681.02034 904.18328 810.18938 795.5948000000001 895.91502C686.96628 981.66068 545.2447 1017.09608 408.0676600000001 994.21322C163.44328 951.91096 -16.016 725.60488 1.14114 476.41594C9.12912 356.39604 59.41936 245.5252800000001 144.02388 160.94078C122.30218 128.9288000000002 102.88278 108.34824 51.43138 67.20714C41.1411 59.21916 36.57654 46.62658 39.97994 34.07404C42.28224 21.5214999999999 51.43138 11.2112 62.84278 7.76776C79.99992 2.08208 105.14504 -0.22022 133.71358 -0.22022C194.2941 -0.22022 270.89062 13.5134999999999 330.33 44.40436C409.2088 16.9569399999999 493.77328 10.0900799999999 577.2366599999999 24.9249C821.8810599999999 68.3482800000001 999.03804 295.7955 981.8809 542.70216zM262.88262 420.42C218.3181 420.42 182.86268 455.8754200000001 182.86268 500.43994C182.86268 545.02448 218.3181 580.43986 262.88262 580.43986C307.46716 580.43986 342.90256 545.00446 342.90256 500.43994C342.90256 455.8754200000001 307.46716 420.42 262.88262 420.42zM491.51102 420.42C446.9465 420.42 411.49108 455.8754200000001 411.49108 500.43994C411.49108 545.02448 446.9465 580.43986 491.51102 580.43986C536.0755399999999 580.43986 571.5309599999999 545.00446 571.5309599999999 500.43994C571.5309599999999 455.8754200000001 536.07554 420.42 491.51102 420.42zM720.1193999999999 420.42C675.55488 420.42 640.11948 455.8754200000001 640.11948 500.43994C640.11948 545.02448 675.5749 580.43986 720.1193999999999 580.43986C764.74398 580.43986 800.1593599999999 545.00446 800.1593599999999 500.43994C800.1593600000001 455.8754200000001 764.72396 420.42 720.1193999999999 420.42z" />
    <glyph glyph-name="Ei-sc-facebook"
      unicode="&#xE012;"
      horiz-adv-x="1001" d="M573.3527799999999 666.22556V766.6659C573.3527799999999 810.1893799999999 583.4028199999999 833.6328 653.7330799999999 833.6328H740.74V1001H606.84624C439.439 1001 372.49212 890.52964 372.49212 766.64588V666.20554H238.5783400000001V498.81832H372.49212V-3.34334H573.35278V498.83834H720.65994L740.74 666.22556H573.3527799999999z" />
    <glyph glyph-name="eye-slash"
      unicode="&#xE013;"
      horiz-adv-x="1001" d="M492.7322399999999 362.3720100000001C423.77335 366.2759100000001 368.69833 421.3509300000001 364.79443 490.29981L492.7322399999999 362.3720100000001zM500.5 259.6093500000001C368.78842 259.6093500000001 262.03177 366.37601 262.03177 498.08759C262.03177 526.48596 267.02676 553.72317 276.12585 578.9784L147.63749 707.46676C82.93285 651.0504000000001 31.86183 579.38881 0 498.08759C78.32825 298.14785 272.81254 156.5363800000001 500.5 156.5363800000001C560.07952 156.5363800000001 617.34673 166.3161500000001 670.8902199999999 184.2240400000002L581.40082 273.7034300000002C556.14559 264.5943300000002 528.90838 259.6093500000001 500.5 259.6093500000001zM951.951 98.5985C965.63467 84.92484 965.63467 62.73267 951.951 49.0590099999999C945.10416 42.21217 936.14521 38.7987599999999 927.17625 38.7987599999999S909.24834 42.2221799999999 902.4015 49.0590099999999L49.049 902.4015C35.36533 916.08517 35.36533 938.26733 49.049 951.951C62.73267 965.62466 84.91483 965.62466 98.5985 951.951L265.21495 785.33455C336.27594 820.05924 416.06565 839.6388 500.5 839.6388C728.18746 839.6388 922.68176 697.9772800000001 1001 498.07758C961.08012 396.16577 890.92003 309.4891799999999 801.61081 248.9186699999999L951.951 98.5985zM359.90955 690.63995L515.25474 535.29476C515.8453299999999 539.2887499999999 516.2257099999999 543.35281 516.2257099999999 547.5069599999999C516.2257099999999 585.00442 491.41092 616.67606 457.31686 627.0564300000001C470.9104399999999 631.6310000000001 485.3849 634.17354 500.5 634.17354C575.6750999999999 634.17354 636.60597 573.24267 636.60597 498.07758C636.60597 473.83336 630.2296 451.1206699999999 619.1084900000001 431.44101L693.0623700000001 357.47712C721.9111900000001 396.8965000000001 738.9782400000001 445.4750300000001 738.9782400000001 498.07758C738.9782400000001 629.7691400000001 632.2215900000001 736.5358000000001 500.5100100000001 736.5358000000001C447.90746 736.5458100000001 399.32893 719.47876 359.90955 690.63995z" />
    <glyph glyph-name="eye"
      unicode="&#xE014;"
      horiz-adv-x="1001" d="M636.60597 498.08759C636.60597 422.90248 575.6751 361.98162 500.5 361.98162C425.31489 361.98162 364.40404 422.90248 364.40404 498.08759C364.40404 498.85836 364.49413 499.60911 364.51415 500.36987C379.50913 478.58811 404.6042 464.2938300000001 433.0326 464.2938300000001C478.9784999999999 464.2938300000001 516.2257099999999 501.57107 516.2257099999999 547.50696C516.2257099999999 585.0044200000001 491.41092 616.6760600000001 457.31686 627.0564300000001C470.9104399999999 631.6310000000001 485.3849 634.17354 500.5 634.17354C575.6750999999999 634.17354 636.60597 573.25268 636.60597 498.08759zM1001 498.08759C922.68176 298.14785 728.18746 156.5363800000001 500.5 156.5363800000001S78.32825 298.14785 0 498.08759C78.32825 697.98729 272.81254 839.6388 500.5 839.6388S922.68176 697.98729 1001 498.08759zM738.96823 498.08759C738.96823 629.7791500000001 632.2115799999999 736.5458100000001 500.4999999999999 736.5458100000001S262.03177 629.7791500000001 262.03177 498.08759C262.03177 366.37601 368.78842 259.6093500000001 500.5 259.6093500000001S738.96823 366.37601 738.96823 498.08759z" />
    <glyph glyph-name="facebook"
      unicode="&#xE015;"
      horiz-adv-x="1000.9755130996354" d="M866.1016658920227 1001H134.8983341079772A134.8983341079772 134.8983341079772 0 0 1 0 866.1261527923873V134.8983341079774A134.8738472076127 134.8738472076127 0 0 1 134.8738472076127 0.0244869003646H495.5169157758262L496.1290882849385 357.7291274248394H403.0788668998752A22.038210328041295 22.038210328041295 0 0 0 381.040656571834 379.5714425499647L380.5998923652731 494.8802563663497A22.038210328041295 22.038210328041295 0 0 0 402.6381026933144 516.9184666943909H495.3944812740037V628.3338633528219C495.3944812740037 757.6246972773308 574.3647349494851 828.0245358252405 689.6980356662343 828.0245358252405H784.3399055749894A22.038210328041295 22.038210328041295 0 0 0 806.3781159030307 805.9863254971992V708.7733310501726A22.038210328041295 22.038210328041295 0 0 0 784.3399055749894 686.7351207221313H726.3794124122409C663.6684605787812 686.7351207221313 651.4984710976295 656.9345629785466 651.4984710976295 613.2744196286603V516.820519092933H789.3352332493456A22.038210328041295 22.038210328041295 0 0 0 811.1040876733774 492.3336187284426L797.4403972699919 377.0248049120577A22.038210328041295 22.038210328041295 0 0 0 775.6715428459601 357.6801536241103H652.1351305071063L651.522957997994 -0.0244869003643H866.1016658920227A134.8738472076127 134.8738472076127 0 0 1 1000.9755130996354 134.8493603072484V866.1261527923873A134.8983341079772 134.8983341079772 0 0 1 866.1016658920227 1001z" />
    <glyph glyph-name="fax"
      unicode="&#xE016;"
      horiz-adv-x="1006.0305703263475" d="M789.2359503701387 1001H216.8154936920029V858.0775310186633H789.2359503701387V1001zM0 788.7767281826713V216.9407361067669H143.0894588676885V429.2266291314776H858.6202481493066V216.9407361067669H1006.0514440621416V788.7767281826713H0zM932.3254092378272 645.7916379939527H862.9619851944531V715.1133145657387H932.3254092378272V645.7916379939527zM216.8154936920029 0.3548535084975H789.2359503701387V359.9049525596914H216.8154936920029V0.3548535084975z" />
    <glyph glyph-name="fetus"
      unicode="&#xE017;"
      horiz-adv-x="1001" d="M963.963 909.4085C931.931 958.958 802.8019999999999 1047.5465 675.1744999999999 969.969C562.5619999999999 901.901 548.0474999999999 837.837 560.5599999999998 666.6659999999999C564.5639999999999 613.1125 580.0794999999998 575.575 606.6059999999999 554.0535C637.1364999999998 529.529 673.1724999999999 534.534 673.6729999999998 535.0345C684.6839999999997 536.5360000000001 695.1944999999998 529.529 697.1964999999998 518.518C699.1984999999997 507.5070000000001 692.6919999999998 496.496 681.6809999999998 493.9935C680.6799999999998 493.9935 594.5939999999997 473.4730000000001 561.0604999999998 457.457C519.0184999999998 437.9375 479.9794999999998 398.8985 479.9794999999998 398.8985C471.9714999999998 390.8905000000001 458.4579999999998 390.8905000000001 450.4499999999998 398.8985C442.4419999999998 406.9065000000001 442.4419999999998 420.42 450.4499999999998 428.4280000000001C452.4519999999998 430.4300000000001 494.4939999999997 472.4720000000001 543.5429999999998 495.4950000000001C556.0554999999998 501.5010000000001 573.5729999999999 507.5070000000001 592.0914999999999 513.0125C588.5879999999999 515.5150000000001 584.5839999999998 518.0175000000002 581.0804999999998 520.5200000000001C565.5649999999998 533.0325 552.5519999999998 549.0485000000001 542.5419999999998 568.0675000000001C533.5329999999998 567.0665000000001 500.4999999999998 562.5620000000001 464.4639999999998 542.0415C412.9124999999999 512.5120000000001 369.3689999999999 461.4610000000001 335.3349999999999 389.3890000000001C317.8174999999998 352.3520000000001 315.3149999999999 320.3200000000001 328.8284999999999 299.2990000000001C338.3379999999999 283.7835000000001 356.3559999999999 274.7745 377.3769999999999 274.7745C449.4489999999999 274.7745 564.5639999999999 330.3300000000001 566.0654999999999 330.8305000000001C578.5779999999999 336.8364999999999 593.0925 331.8314999999999 599.0984999999998 319.319C605.1044999999999 306.8064999999999 600.0994999999999 291.7915 587.5869999999999 285.7855C582.5819999999999 283.283 460.9604999999999 224.7245 377.3769999999999 224.7245C339.3389999999999 224.7245 305.8054999999999 242.7425000000001 286.7864999999999 272.7725000000001C273.7734999999999 293.7935 256.7564999999999 339.8395000000001 290.2899999999999 411.4110000000001C301.8014999999999 435.4350000000001 313.8134999999999 457.457 327.3269999999999 477.4770000000001C327.3269999999999 479.479 327.8274999999999 481.481 328.3279999999999 483.4830000000001C345.3449999999999 543.0425 309.3089999999999 584.5840000000001 285.2849999999999 599.599C255.7554999999999 618.1175000000001 221.7214999999999 615.1145 177.6774999999999 590.5900000000001C151.6514999999999 576.0755 117.6174999999999 526.0255000000001 108.1079999999999 509.5090000000001C101.1009999999999 497.497 85.5854999999999 493.9935000000001 74.0739999999999 501.0005C62.0619999999999 508.0075000000001 58.5584999999999 523.523 65.5654999999999 535.5350000000001C67.0669999999999 538.538 74.0739999999999 549.5490000000001 84.0839999999999 563.5630000000001C67.5674999999999 571.0705 39.5394999999999 578.578 22.0219999999999 560.0595000000001C-7.0070000000001 529.0285 -7.5075000000001 494.4940000000001 20.5204999999999 453.4530000000001C48.0479999999999 413.413 100.0999999999999 388.8885 123.6234999999999 379.379C149.6494999999999 437.9375000000001 179.6794999999999 484.9845 181.6814999999999 487.9875000000001C188.1879999999999 497.4970000000001 200.7004999999999 500.5000000000001 210.2099999999999 493.9935000000001C219.7194999999999 487.4870000000001 222.2219999999999 474.474 216.216 464.9645000000002C215.2149999999999 463.4630000000001 132.132 334.3340000000001 128.1279999999999 244.7445000000002C125.1249999999999 174.1740000000002 175.6755 15.0150000000002 345.8455 2.0020000000002C591.0904999999999 -17.0169999999998 755.2544999999999 143.1430000000002 814.3135 212.7125000000002C900.3994999999999 314.3140000000002 884.3834999999999 419.9195000000002 861.3605 466.4660000000001C842.842 503.5030000000002 867.867 527.5270000000002 894.3934999999999 553.0525000000002C914.4134999999998 572.5720000000001 939.9389999999999 597.0965000000001 962.9619999999998 637.1365000000001C1021.02 737.2365 1005.004 845.845 963.963 909.4085zM249.7495 730.2294999999999C314.314 697.697 358.8585 628.6279999999999 375.8755 535.5350000000001C375.8755 535.0345 375.8755 534.534 376.3759999999999 534.0335L412.9124999999999 562.0615C390.8905 658.6579999999999 340.34 731.2305 268.2680000000001 767.767C200.2 801.801 157.157 875.875 156.6565 876.876C150.6505 886.886 138.138 890.3895 128.128 884.3835C118.118 878.3775 114.6145 865.865 120.6205 855.855C122.6225 852.3515 170.17 770.2695 249.7495 730.2294999999999z" />
    <glyph glyph-name="heartbeat"
      unicode="&#xE018;"
      horiz-adv-x="1001" d="M735.2345 926.4255C885.885 926.4255 1001 804.3035 1001 642.6419999999999C1001 600.5999999999999 992.4915 561.5609999999999 976.9759999999998 524.0235H753.2524999999999L702.702 625.1244999999999C692.692 645.1444999999999 660.1595 645.1444999999999 650.1495 625.1244999999999L559.0585 442.9425L526.526 508.0075C516.516 528.0275 483.9835 528.0275 473.9735 508.0075L441.4410000000001 442.9425L350.8505 625.1245C340.8405 645.1445000000001 308.308 645.1445000000001 298.298 625.1245L247.7475 524.0235H24.024C8.5085 561.561 0 600.0995 0 642.642C0 804.8040000000001 115.6155 926.4255 265.7655 926.4255C384.384 926.4255 460.46 844.3435000000001 500.5 770.2695C540.54 844.3435 616.616 926.4255 735.2345 926.4255M715.2145 514.514L681.681 581.581L587.5870000000001 393.8935C582.5820000000001 383.8835000000001 572.0715000000001 377.3770000000001 560.5600000000001 377.3770000000001C549.0485000000001 377.3770000000001 538.538 383.8835000000001 533.533 393.8935L500.5 460.46L466.9665 393.3930000000001C456.456 372.8725000000001 422.9225 372.8725000000001 412.9125 393.3930000000001L319.319 581.0805L285.7855 514.0135C280.7805 504.0035 270.27 497.497 258.7585 497.497H41.041C103.103 399.8995 215.215 306.8065000000001 355.355 188.6885C394.8945 155.6555 436.436 120.12 480.48 82.0819999999999C485.9854999999999 77.0769999999999 492.9925 74.5744999999999 500.5 74.5744999999999C507.507 74.5744999999999 514.514 77.0769999999999 520.52 82.0819999999999C564.564 120.1199999999999 606.1055 155.6554999999999 645.645 188.6885C785.785 306.8064999999999 897.897 399.8995 959.959 497.9974999999999H742.2415000000001C730.73 497.497 720.2195 504.0035 715.2145 514.514" />
    <glyph glyph-name="house"
      unicode="&#xE019;"
      horiz-adv-x="1188.8569804566564" d="M1187.5011368034054 407.8426131965945L965.1185661764704 630.2493953173375V963.9079914860682H816.823166602167V778.5690063854489L594.4405959752322 1001L1.3558436532508 407.8426131965945V370.7506046826626H149.6270317337461V0H520.3050019349846V222.430993614551H668.600401509288V0H1039.2541602167182V370.7506046826626H1187.5253482972137V407.8426131965945zM1187.5011368034054 407.8426131965945" />
    <glyph glyph-name="iconmonstr-instagram-11"
      unicode="&#xE01A;"
      horiz-adv-x="1001" d="M500.5 910.784875C634.1335 910.784875 649.9826666666667 910.284375 702.7854166666667 907.8652916666668C838.4209166666667 901.6924583333334 901.7758750000002 837.3365 907.9487083333335 702.702C910.3677916666668 649.9409583333334 910.8265833333334 634.0917916666667 910.8265833333334 500.4582916666666C910.8265833333334 366.7830833333334 910.3260833333334 350.9756250000001 907.9487083333335 298.2145833333333C901.7341666666669 163.7052083333332 838.5460416666667 99.2241249999999 702.7854166666667 93.0512916666665C649.9826666666668 90.6322083333332 634.2169166666667 90.1317083333332 500.5000000000001 90.1317083333332C366.8665000000001 90.1317083333332 351.0173333333335 90.6322083333332 298.2562916666668 93.0512916666665C162.2871250000001 99.2658333333333 99.2658333333334 163.9137499999999 93.0930000000001 298.2562916666665C90.6739166666668 351.0173333333331 90.1734166666668 366.8247916666665 90.1734166666668 500.4999999999998C90.1734166666668 634.1334999999999 90.7156250000001 649.9409583333331 93.0930000000001 702.7437083333332C99.3075416666668 837.3364999999999 162.4956666666668 901.7341666666666 298.2562916666668 907.9069999999998C351.0590416666668 910.2843749999998 366.8665000000001 910.7848749999998 500.5000000000001 910.7848749999998zM500.5 1001C364.5725416666667 1001 347.5555416666667 1000.4160833333332 294.168875 997.997C112.4039583333334 989.6553333333334 11.386375 888.8045833333333 3.0447083333333 706.8728333333333C0.5839166666666 653.4444583333334 0 636.4274583333333 0 500.5C0 364.5725416666667 0.5839166666666 347.5138333333333 3.003 294.1271666666667C11.3446666666666 112.3622499999999 112.1954166666667 11.3446666666665 294.1271666666667 3.0029999999999C347.5555416666667 0.5839166666666 364.5725416666667 0 500.5 0C636.4274583333333 0 653.4861666666667 0.5839166666666 706.8728333333333 3.0029999999999C888.4709166666667 11.3446666666665 989.73875 112.1954166666666 997.9552916666667 294.1271666666667C1000.4160833333334 347.5138333333333 1001 364.5725416666667 1001 500.5C1001 636.4274583333333 1000.4160833333334 653.4444583333334 997.997 706.8311249999999C989.8221666666668 888.4292083333333 888.8462916666667 989.613625 706.9145416666668 997.9552916666667C653.4861666666667 1000.4160833333334 636.4274583333334 1001 500.5000000000001 1001zM500.5 757.50675C358.5665416666667 757.50675 243.49325 642.4334583333333 243.49325 500.5S358.5665416666667 243.4515416666666 500.5 243.4515416666666S757.50675 358.5248333333333 757.50675 500.5C757.50675 642.4334583333333 642.4334583333333 757.50675 500.5 757.50675zM500.5 333.6666666666667C408.3662916666667 333.6666666666667 333.6666666666667 408.3245833333333 333.6666666666667 500.5C333.6666666666667 592.6337083333333 408.3662916666667 667.3333333333333 500.5 667.3333333333333S667.3333333333334 592.6337083333333 667.3333333333334 500.5C667.3333333333334 408.3245833333333 592.6337083333334 333.6666666666667 500.5 333.6666666666667zM767.6835833333333 827.701875C734.48375 827.701875 707.5818750000001 800.8000000000001 707.5818750000001 767.641875S734.48375 707.5818750000001 767.6835833333333 707.5818750000001C800.8417083333334 707.5818750000001 827.701875 734.4837500000001 827.701875 767.641875S800.8417083333334 827.701875 767.6835833333333 827.701875z" />
    <glyph glyph-name="info"
      unicode="&#xE01B;"
      horiz-adv-x="1001" d="M500.5 1001C224.8623188405797 1001 0 776.1376811594203 0 500.5C0 224.8623188405798 224.8623188405797 0 500.5 0C776.1376811594203 0 1001 224.8623188405796 1001 500.5C1001 776.1376811594203 776.1376811594203 1001 500.5 1001M551.2753623188405 275.6376811594203C551.2753623188405 253.8768115942029 544.0217391304348 239.3695652173914 536.7681159420289 224.8623188405798C529.5144927536231 217.608695652174 515.0072463768115 210.3550724637683 500.4999999999999 210.3550724637683C485.9927536231883 210.3550724637683 471.4855072463768 217.608695652174 464.2318840579709 224.8623188405798C456.9782608695652 239.3695652173914 449.7246376811594 253.876811594203 449.7246376811594 268.3840579710145V573.036231884058C449.7246376811594 594.7971014492753 456.9782608695651 609.304347826087 464.2318840579709 616.5579710144928C471.4855072463768 631.0652173913044 485.9927536231884 638.3188405797101 500.5 638.3188405797101C515.0072463768116 638.3188405797101 529.5144927536232 631.0652173913044 536.768115942029 623.8115942028985C544.0217391304348 616.5579710144928 551.2753623188406 602.0507246376812 551.2753623188406 580.2898550724638V275.6376811594203zM536.768115942029 696.3478260869565C529.5144927536231 689.0942028985507 515.0072463768115 681.840579710145 500.5 681.840579710145C485.9927536231884 681.840579710145 471.4855072463768 689.0942028985507 464.231884057971 696.3478260869565C456.9782608695652 703.6014492753624 449.7246376811595 718.108695652174 449.7246376811595 732.6159420289855C449.7246376811595 747.1231884057971 456.9782608695652 761.6304347826087 464.231884057971 768.8840579710145C478.7391304347826 783.3913043478261 485.9927536231884 783.3913043478261 500.5 783.3913043478261C515.0072463768115 783.3913043478261 529.5144927536231 783.3913043478261 536.768115942029 776.1376811594203C544.0217391304348 768.8840579710145 551.2753623188406 754.3768115942029 551.2753623188406 739.8695652173913C551.2753623188405 718.108695652174 551.2753623188405 703.6014492753624 536.768115942029 696.3478260869565" />
    <glyph glyph-name="jin_cart"
      unicode="&#xE01C;"
      horiz-adv-x="1263.2621041135785" d="M228.008736803786 819.8944302875865L229.5704404805242 820.0506006552603L278.555879140881 241.9078995267564H1085.7484528576629L1263.2621041135785 857.8438296323261H328.7386239534038L313.6421550782672 1001H0V896.8864215507826H219.9399344739716L228.008736803786 819.8944302875865zM1124.843101565344 753.7302511831089L1007.3509282854022 345.9694211867492H374.2362577357117L339.7226064797962 753.7302511831089H1124.843101565344zM192.9745176556243 97.0859119038951A97.08591190389517 97.08591190389517 0 0 1 387.1463414634147 97.0859119038951A97.08591190389517 97.08591190389517 0 0 1 192.9745176556243 97.0859119038951M930.4109938114306 97.0859119038951A97.08591190389517 97.08591190389517 0 0 1 1124.5828176192208 97.0859119038951A97.08591190389517 97.08591190389517 0 0 1 930.4109938114306 97.0859119038951M407.2402621041136 666.9515835456862H489.6461594466691V584.5456862031307H407.2402621041136V666.9515835456862zM541.7029486712778 666.9515835456862H624.1088460138333V584.5456862031307H541.7029486712778V666.9515835456862zM676.2176920276665 666.9515835456862H758.6235893702221V584.5456862031307H676.2176920276665V666.9515835456862zM945.1430651619949 666.9515835456862H1027.5489625045502V584.5456862031307H945.1430651619949V666.9515835456862zM810.6803785948307 666.9515835456862H893.0862759373862V584.5456862031307H810.6803785948307V666.9515835456862zM407.2402621041136 515.1539861667273H489.6461594466691V432.7480888241718H407.2402621041136V515.1539861667273zM541.7029486712778 515.1539861667273H624.1088460138333V432.7480888241718H541.7029486712778V515.1539861667273zM676.2176920276665 515.1539861667273H758.6235893702221V432.7480888241718H676.2176920276665V515.1539861667273zM945.1430651619949 515.1539861667273H1027.5489625045502V432.7480888241718H945.1430651619949V515.1539861667273zM810.6803785948307 515.1539861667273H893.0862759373862V432.7480888241718H810.6803785948307V515.1539861667273z" />
    <glyph glyph-name="keane"
      unicode="&#xE01D;"
      horiz-adv-x="1000.9540825688073" d="M989.658394495413 741.6124311926606C974.6663532110092 756.6503899082569 950.2382798165138 756.6503899082569 935.2232798165138 741.6124311926606C924.9377752293578 731.3269266055046 912.6778211009174 723.1995412844037 899.3158486238532 716.8629357798166L716.8629357798166 899.3617660550459C723.1995412844037 912.6778211009174 731.3039678899083 924.9607339449542 741.6124311926606 935.24623853211C756.6274311926607 950.2841972477064 756.6274311926607 974.6663532110092 741.6124311926606 989.7043119266056C726.5744724770642 1004.7422706422018 702.1923165137615 1004.7422706422018 687.1773165137615 989.7043119266056C619.3802293577982 921.9301834862385 611.2758027522935 811.3839678899083 622.5944495412845 716.3578440366973C384.0074770642203 744.5741055045871 254.1529816513763 635.8645871559634 284.6191972477065 378.4055504587156C189.6389908256881 389.7241972477064 79.0698165137615 381.6197706422019 11.2956880733946 313.8226834862385C-3.7422706422018 298.8536009174311 -3.7422706422018 274.4255275229357 11.2956880733946 259.4105275229357C26.3106880733946 244.3955275229356 50.7158027522936 244.3955275229356 65.7078440366973 259.4105275229357C76.0392660550459 269.6960321100917 88.2992201834863 277.846376146789 101.6611926605505 284.1370642201834L284.1141055045873 101.7300688073393C277.7086238532111 88.1844266055044 269.5582798165139 75.9933486238531 259.3646100917432 65.7767201834861C244.3496100917432 50.7387614678897 244.3496100917432 26.3795642201833 259.3646100917432 11.3186467889907C274.4025688073396 -3.6733944954129 298.7847247706423 -3.6733944954129 313.8226834862387 11.3186467889907C381.5968119266056 79.1157339449541 389.7241972477066 189.6619495412842 378.4055504587157 284.6880733944953C616.9466055045873 256.4718119266053 746.7551834862386 365.1583715596329 716.3578440366974 622.6174082568805C811.2232568807341 611.3446788990824 921.8613073394496 619.4261467889906 989.658394495413 687.2002752293577C1004.7193119266057 702.2152752293578 1004.7193119266057 726.5974311926606 989.658394495413 741.6124311926606zM304.7080733944955 190.0063302752294L189.9833715596331 304.7539908256881C225.8908027522936 307.1187385321103 264.0941055045872 304.3407339449542 298.8765596330276 298.6469724770642C303.6749311926606 270.1552064220184 307.4631192660551 230.2299999999999 304.7080733944955 190.0063302752294zM364.3548165137615 364.3777752293578C358.6380963302753 399.3668577981652 355.9519266055046 437.5701605504587 358.3166743119266 473.0872935779817L473.0184174311927 358.3625917431193C437.2257798165138 355.9519266055046 399.1602293577982 358.7069724770643 364.3548165137615 364.3777752293578zM561.3635550458716 378.9106422018349L378.8876834862386 561.3865137614679C392.0430275229358 589.0288073394495 410.5018348623853 608.245252293578 439.5905275229358 622.1123165137615L622.0663990825688 439.6364449541284C608.8880963302753 411.9941513761468 590.452247706422 392.7777064220184 561.3635550458716 378.9106422018349zM642.6144495412843 527.9586238532111L527.889747706422 642.660366972477C563.7053440366972 645.0480733944954 601.7938532110092 642.3159862385321 636.5533486238533 636.6451834862385C642.3159862385321 601.6561009174312 645.0021559633028 563.475756880734 642.6144495412843 527.9586238532111zM702.3071100917431 702.3530275229358C696.5674311926606 737.2961926605506 693.8812614678899 775.499495412844 696.2460091743119 810.9936697247706L810.9477522935781 696.2919266055046C775.1780733944955 693.9271788990825 737.0666055045872 696.6592660550459 702.3071100917431 702.3530275229358z" />
    <glyph glyph-name="letter"
      unicode="&#xE01E;"
      horiz-adv-x="1001" d="M920.92 820.8199999999999H80.08C36.036 820.8199999999999 0 784.784 0 740.74V260.26C0 216.216 35.5355 180.1800000000001 80.08 180.1800000000001H920.92C965.4645 180.1800000000001 1001 216.216 1001 260.26V740.74C1001 785.2845 965.4645 820.8199999999999 920.92 820.8199999999999zM900.9 780.78L500.5 432.432L100.1 780.78H900.9zM52.5525 231.231C45.045 238.238 40.04 248.7484999999999 40.04 260.7605V740.2395C40.04 751.751 45.045 762.2615 52.5525 769.769L362.362 500.5L52.5525 231.231zM100.1 220.22L392.392 474.474L500.5 380.38L608.608 474.474L900.9 220.22H100.1zM960.96 260.7605C960.96 249.2489999999999 955.955 238.7385 948.4475 231.231L638.6379999999999 500.5L948.4475 769.769C955.955 762.2615 960.96 751.751 960.96 740.2395V260.7605z" />
    <glyph glyph-name="light"
      unicode="&#xE01F;"
      horiz-adv-x="960.6305565057704" d="M478.6714077381488 767.0245755540752C341.4951118952884 765.9895936481644 232.3251174765498 654.9813477845993 233.7746070611959 517.8024773598833C234.3873575428047 452.5136560862754 260.5451091946781 393.1978647174261 302.5648596582829 349.5303818663017C335.1075743117946 315.9604090524458 356.3169796373982 272.2929262013214 363.5283834146518 226.3623858992131C366.4144896746666 206.5895972489781 383.7131051617667 192.1693642763263 403.6970095241525 192.1693642763263H556.7250058513225C576.9097275984374 192.1693642763263 594.004951118953 206.795563797418 597.1047476729742 226.563203283942C604.1050357380769 272.4937435860502 625.1136236789516 315.5484759555658 657.6589129143188 349.3192661541507C700.4922312442613 393.599499486884 726.8610986082857 453.9554219253549 726.8610986082857 520.477467907747C726.8559494445745 657.2418306537277 615.6365878688584 768.0518337144194 478.6714077381488 767.0245755540752M566.2071908251265 154.6860270421114H394.2225482959149C378.5639414507679 154.6860270421114 366.0025565777866 142.1143438417082 366.0025565777866 126.4660353239831V97.2213600273661C366.0025565777866 73.7385989233567 383.1003546801577 54.5785607547306 405.5481338782565 51.0797040131068L412.5458473615037 24.5100192643536C416.4695101092847 10.0975100372683 429.4428280791459 -1e-13 444.4783861152621 -1e-13H515.9410546783573C530.9766127144735 -1e-13 543.9602290117566 10.0975100372684 547.8710188502602 24.5100192643536L555.0824226275138 51.0797040131068C577.3190861134616 54.3777433700014 594.4143096339772 73.7385989233566 594.4143096339772 97.010244315215V126.2549196118321C594.4168842158329 141.9135264569792 581.8554993428515 154.4749113299605 566.2071908251265 154.6860270421114M819.9528293394309 860.3222728336605C809.0314531084026 871.2462236465441 791.5320202365737 871.2462236465441 780.6106440055454 860.3222728336605L711.6092756963075 791.323479106278C700.6981977927013 780.4098266208163 700.6981977927013 762.9026700034208 711.6092756963075 751.989017517959C717.1703725041862 746.6287380948094 724.1809588967108 743.9537475469456 731.3820643465425 743.9537475469456C738.3926507390672 743.9537475469456 745.6014799344654 746.6287380948094 750.9540356120484 751.989017517959L819.9554039212863 820.9800874997749C830.8664818248925 831.9014637308031 830.8664818248925 849.4111949300542 819.9528293394309 860.3222728336605M480.3114163801019 847.9642799272635C495.558090128369 847.9642799272635 508.1194750013503 860.3222728336603 508.1194750013503 875.7697639666565V973.1919413787516C508.1169004194949 988.4386151270186 495.758907513098 1001 480.3114163801019 1001C464.8639252471059 1001 452.5162306681311 988.6394325117476 452.5162306681311 973.1919413787516V875.7697639666565C452.5136560862755 860.3222728336605 465.0750409592568 847.9642799272635 480.3114163801019 847.9642799272635M932.822497884522 548.4863439137245H835.4003204724269C820.1536467241598 548.4863439137245 807.5922618511786 536.136074752894 807.5922618511786 520.688583619898C807.5922618511786 505.4444844534864 819.9528293394309 492.8830995805051 835.4003204724269 492.8830995805051H932.8224978845222C948.0588733053672 492.8830995805051 960.6305565057706 505.241092486902 960.6305565057706 520.688583619898C960.6305565057704 535.9249590407433 948.269989017518 548.4863439137245 932.822497884522 548.4863439137245M125.2302360333436 548.4863439137245H27.8080586212484C12.5613848729813 548.4863439137245 0 536.136074752894 0 520.688583619898C0 505.4444844534864 12.3605674882523 492.8830995805051 27.8080586212484 492.8830995805051H125.2302360333436C140.6777271663396 492.8830995805051 153.0357200727365 505.241092486902 153.0357200727365 520.688583619898C153.0357200727365 535.9249590407433 140.6777271663396 548.4863439137245 125.2302360333436 548.4863439137245M248.810165097312 791.534594818429L179.8087967880742 860.5333885458114C168.8977188844679 871.4470410312731 151.3879876852169 871.4470410312731 140.4666114541887 860.5333885458114C129.552958968727 849.6120123147831 129.552958968727 832.1022811155322 140.4666114541887 821.1912032119259L209.676520893722 752.189834902688C215.0290765713051 746.8398538069603 222.2379057667033 744.1545649316745 229.2381938318061 744.1545649316745C236.2487802243307 744.1545649316745 243.4498856741624 746.8398538069604 248.810165097312 752.189834902688C259.7212430009183 763.1137857155717 259.7212430009183 780.6106440055453 248.810165097312 791.534594818429" />
    <glyph glyph-name="lighten"
      unicode="&#xE020;"
      horiz-adv-x="960.57896090535" d="M594.4724794238683 126.1548353909465V96.8045267489712C594.4724794238683 73.6332304526749 577.4801954732511 54.0663580246912 555.0812757201646 50.9768518518519L547.8724279835391 24.4585905349793C544.0105452674896 10.0408950617283 530.8801440329219 -1e-13 515.9475308641975 -1e-13H444.3739711934156C429.4413580246913 -1e-13 416.3109567901234 10.0408950617283 412.449074074074 24.4585905349793L405.4976851851852 50.9768518518519C383.0987654320988 54.5812757201645 365.8490226337448 73.6332304526749 365.8490226337448 97.0619855967077V126.412294238683C365.8490226337448 142.1172839506172 378.4645061728395 154.7327674897118 394.1694958847736 154.7327674897118H566.1520061728395C581.8569958847737 154.4753086419752 594.4724794238683 141.8598251028807 594.4724794238683 126.1548353909465M726.8063271604939 520.5817901234568C726.8063271604939 454.1574074074074 700.5455246913581 393.6545781893004 657.5498971193416 349.3716563786009C625.1100823045268 315.6445473251029 603.9984567901234 272.6489197530865 597.0470679012346 226.5637860082304C593.9575617283951 206.7394547325103 576.9652777777778 192.0643004115226 556.6260288065845 192.0643004115226H403.6954732510289C383.613683127572 192.0643004115226 366.3639403292182 206.4819958847737 363.5318930041153 226.3063271604939C356.3230452674898 272.1340020576132 335.2114197530865 315.9020061728396 302.514146090535 349.3716563786009C260.5483539094651 393.1396604938273 234.2875514403293 452.3551954732511 233.772633744856 517.749742798354C232.2278806584363 654.9753086419753 341.3904320987656 765.940072016461 478.6159979423869 766.9699074074075C615.5841049382716 767.999742798354 726.8063271604939 657.2924382716049 726.8063271604939 520.5817901234568M508.2237654320988 669.9079218106996C508.2237654320988 685.0979938271605 495.8657407407408 697.7134773662551 480.4182098765432 697.7134773662551C382.3263888888889 697.7134773662551 302.514146090535 617.9012345679012 302.514146090535 519.8094135802469C302.514146090535 504.619341563786 314.8721707818931 492.0038580246913 330.3197016460906 492.0038580246913C345.5097736625515 492.0038580246913 358.1252572016462 504.3618827160494 358.1252572016462 519.8094135802469C358.1252572016462 587.2636316872429 413.2214506172841 642.102366255144 480.4182098765433 642.102366255144C495.8657407407408 642.102366255144 508.2237654320988 654.460390946502 508.2237654320988 669.9079218106996M480.4182098765432 848.0694444444445C495.6082818930041 848.0694444444445 508.2237654320988 860.4274691358024 508.2237654320988 875.875V973.1944444444443C508.2237654320988 988.3845164609054 495.8657407407408 1001 480.4182098765432 1001C464.9706790123457 1001 452.6126543209876 988.641975308642 452.6126543209876 973.1944444444443V875.875C452.6126543209877 860.4274691358024 464.9706790123457 848.0694444444445 480.4182098765432 848.0694444444445M152.9305555555556 520.5817901234568C152.9305555555556 535.7718621399176 140.5725308641976 548.3873456790124 125.125 548.3873456790124H27.8055555555556C12.6154835390947 548.3873456790124 0 536.0293209876543 0 520.5817901234568C0 505.3917181069959 12.358024691358 492.7762345679012 27.8055555555556 492.7762345679012H125.125C140.5725308641976 492.7762345679012 152.9305555555556 505.1342592592592 152.9305555555556 520.5817901234568M932.7734053497944 548.3873456790122H835.4539609053498C820.263888888889 548.3873456790122 807.6484053497943 536.0293209876543 807.6484053497943 520.5817901234567C807.6484053497943 505.3917181069958 820.0064300411523 492.7762345679011 835.4539609053498 492.7762345679011H932.7734053497944C947.9634773662552 492.7762345679011 960.57896090535 505.1342592592592 960.57896090535 520.5817901234567C960.57896090535 536.0293209876543 948.2209362139918 548.3873456790122 932.7734053497944 548.3873456790122M731.4405864197532 744.0560699588477C738.391975308642 744.0560699588477 745.6008230452676 746.6306584362139 751.0074588477368 752.0372942386831L820.0064300411525 821.0362654320987C830.8197016460907 831.849537037037 830.8197016460907 849.3567386831276 820.0064300411525 860.4274691358024C809.1931584362142 871.2407407407406 791.6859567901237 871.2407407407406 780.6152263374487 860.4274691358024L711.6162551440331 791.4284979423868C700.8029835390948 780.6152263374486 700.8029835390948 763.108024691358 711.6162551440331 752.0372942386831C717.2803497942388 746.6306584362139 724.2317386831277 744.0560699588477 731.4405864197532 744.0560699588477M209.5715020576132 752.2947530864197C214.9781378600823 746.8881172839506 222.1869855967079 744.3135288065844 229.1383744855968 744.3135288065844C236.0897633744856 744.3135288065844 243.2986111111111 746.8881172839506 248.7052469135803 752.2947530864197C259.5185185185186 763.108024691358 259.5185185185186 780.6152263374486 248.7052469135803 791.6859567901234L179.7062757201646 860.4274691358024C168.8930041152263 871.2407407407408 151.3858024691358 871.2407407407408 140.3150720164609 860.4274691358024C129.5018004115226 849.6141975308642 129.5018004115226 832.1069958847737 140.3150720164609 821.0362654320987L209.5715020576132 752.2947530864197z" />
    <glyph glyph-name="line-logo"
      unicode="&#xE021;"
      horiz-adv-x="1001" d="M998.6707427291858 611.6190747585388L998.680869934711 611.622450493714L998.3703022986024 614.1880092267847C998.3669265634276 614.231893784061 998.3635508282524 614.2656511358118 998.3567993579022 614.309535693088C998.353423622727 614.3466687800142 998.350047887552 614.380426131765 998.3432964172018 614.417559218691L997.1820435169697 624.0654103491071C996.9491177898882 626.0030823396105 996.6824347110557 628.2108131441214 996.3786185452976 630.7291115847408L996.1355656126908 632.7342982787461L995.6393325419522 632.6735350455945C983.4292984136404 702.1157833324341 949.8879937139156 768.0168854206012 897.9388051044083 824.2870150542276C846.2326694275076 880.2870858738468 779.0555394431555 924.5024651972158 703.6719972481519 952.1531120164032C639.084056143096 975.8440214752064 570.5532563535315 987.8582629633626 499.9902639885609 987.8582629633626C404.7270173474343 987.8582629633626 312.2082434036583 965.45350860627 232.4396212162089 923.0677777478014C78.6174964927427 841.3378534236227 -12.1020106027087 691.1108866616306 1.306409512761 540.3438022716236C8.2469210327524 462.3271866400474 38.8108273080451 388.0643885231748 89.6966593373982 325.5761546970268C137.5915900016187 266.7607207413802 202.3820752171802 219.2978841795715 277.0600887605892 188.3187624777423C322.9768386122053 169.2728646198673 368.3771009820321 160.2967847892948 416.4475698753575 150.7940902714078L422.0749204122376 149.6800976636271C435.3111780337776 147.0605271677548 438.8692029083257 143.4619934711055 439.787402875951 142.0374332272163C441.4853976690228 139.3908568499434 440.5975793179734 134.1753460044246 439.9156808126046 131.3025953704204C439.2877940700372 128.6526432579722 438.6396529164195 126.0094426158745 437.9915117628015 123.3628662386016C432.8300126800842 102.3151574218962 427.4929753682621 80.548417012896 431.6856384557277 56.5503156531594C436.5061882857606 28.9638078022987 453.7325648842606 13.1417370366377 478.9493066422058 13.1383613014624C478.9526823773809 13.1383613014624 478.9526823773809 13.1383613014624 478.9560581125561 13.1383613014624C506.080090244429 13.1383613014624 536.9511884206552 31.333573895214 557.3777619651433 43.371445529596L560.1053559866185 44.9749197377654C608.8374689742622 73.5944025522045 654.747467355528 105.8765580316195 689.2981168726056 130.8029865645069C764.9044575891652 185.3514912588358 850.6008707440782 247.1814567258407 914.8478625964495 327.1695016996712C979.5438272271084 407.7314216532672 1010.0199643878486 511.2550922678466 998.6707427291858 611.6190747585388zM311.7255132736201 458.9885845518804H225.3674560243889C212.3168638374791 458.9885845518804 201.7373097987374 469.5681385906221 201.7373097987374 482.6187307775319V663.8822067393298C201.7373097987374 676.9327989262397 212.3168638374791 687.5123529649813 225.3674560243889 687.5123529649813C238.4180482112987 687.5123529649813 248.9976022500405 676.9327989262397 248.9976022500405 663.8822067393298V506.2488770031836H311.722137538445C324.7727297253548 506.2488770031836 335.3522837640965 495.669322964442 335.3522837640965 482.6187307775321C335.3556594992716 469.5681385906222 324.7761054605299 458.9885845518804 311.7255132736201 458.9885845518804zM401.813757891329 483.2601204607996C401.813757891329 470.2095282738898 391.2342038525873 459.6299742351481 378.1836116656774 459.6299742351481C365.1330194787676 459.6299742351481 354.5534654400259 470.2095282738898 354.5534654400259 483.2601204607996V664.5235964225976C354.5534654400259 677.5741886095074 365.1330194787676 688.1537426482491 378.1836116656774 688.1537426482491C391.2342038525873 688.1537426482491 401.813757891329 677.5741886095074 401.813757891329 664.5235964225976V483.2601204607996zM615.4100253601683 483.2601204607996C615.4100253601683 473.0215156747424 608.8172145632116 463.9475395240921 599.0782185830681 460.78447566503C596.6746951384018 460.0046808395834 594.2137841957589 459.6265984999731 591.7832548696919 459.6265984999731C584.3600132196622 459.6265984999731 577.1899517077645 463.1339873468947 572.6563393676146 469.3757216856419L487.5641828090434 586.5711197593482V483.2567447256247C487.5641828090434 470.2061525387147 476.9846287703017 459.6265984999731 463.9340365833918 459.6265984999731C450.8834443964819 459.6265984999731 440.3038903577403 470.2061525387147 440.3038903577403 483.2567447256247V659.3350914584795C440.3038903577403 669.5736962445369 446.8967011546971 678.6476723951871 456.6356971348406 681.8107362542492C466.3780688501592 684.9704243781364 477.0420162682782 681.5069200884909 483.0575763502941 673.2194902336373L568.1497329088653 556.0240921599311V664.5235964225976C568.1497329088653 677.5741886095074 578.7292869476069 688.1537426482491 591.7798791345168 688.1537426482491C604.8304713214267 688.1537426482491 615.4100253601683 677.5741886095074 615.4100253601683 664.5235964225976V483.2601204607996zM787.5961494361409 463.3500343981007H670.6438042950413C657.5932121081314 463.3500343981007 647.0136580693897 473.9295884368423 647.0136580693897 486.9801806237522V577.6085428694761V668.2436565855501C647.0136580693897 681.2942487724599 657.5932121081314 691.8738028112017 670.6438042950413 691.8738028112017H783.9672341229158C797.0178263098258 691.8738028112017 807.5973803485673 681.2942487724599 807.5973803485673 668.2436565855501S797.0178263098258 644.6135103598986 783.9672341229158 644.6135103598986H694.2739505206928V601.2386890951277H767.0615523660498C780.1121445529596 601.2386890951277 790.6916985917013 590.6591350563859 790.6916985917013 577.6085428694761C790.6916985917013 564.5579506825662 780.1121445529596 553.9783966438246 767.0615523660498 553.9783966438246H694.2739505206928V510.6103268494037H787.5961494361409C800.6467416230508 510.6103268494037 811.2262956617925 500.0307728106621 811.2262956617925 486.9801806237522S800.6467416230507 463.3500343981007 787.5961494361409 463.3500343981007z" />
    <glyph glyph-name="listbar"
      unicode="&#xE022;"
      horiz-adv-x="1001" d="M0 917.917H1001V841.841H0V917.917zM0 538.538H1001V462.462H0V538.538zM0 159.1590000000001H1001V83.0830000000001H0V159.1590000000001z" />
    <glyph glyph-name="lock"
      unicode="&#xE023;"
      horiz-adv-x="1001" d="M763.80304 553.07252H329.329V750.68994C329.329 845.1443 406.12572 921.98106 500.5 921.98106C594.85426 921.98106 671.65098 845.1443 671.65098 750.68994V671.63096C671.65098 649.80916 689.34866 632.11148 711.15044 632.11148C733.0122799999999 632.11148 750.6498999999999 649.80916 750.6498999999999 671.63096V750.68994C750.62988 888.70782 638.4378 1001 500.5 1001S250.33008 888.70782 250.33008 750.68994V553.0725199999999H237.15692C200.8006 553.0725199999999 171.31114 523.5830599999999 171.31114 487.1867V65.62556C171.31114 29.24922 200.8006 -0.2602599999999 237.15692 -0.2602599999999H763.80304C800.11932 -0.2602599999999 829.64882 29.24922 829.64882 65.62556V487.1867C829.64882 523.5830599999999 800.13934 553.07252 763.80304 553.07252zM421.48106 329.10878C421.48106 372.75238 456.8564 408.12772 500.47998 408.12772C544.0835400000001 408.12772 579.4789000000001 372.73236 579.4789000000001 329.10878C579.4789000000001 299.8595600000001 563.58302 274.3540800000001 539.9794400000001 260.6604000000001V144.6645200000002H460.9805200000001V260.6604000000001C437.39696 274.3540800000001 421.48106 299.8795800000001 421.48106 329.10878z" />
    <glyph glyph-name="mail"
      unicode="&#xE024;"
      horiz-adv-x="1024.9630486914816" d="M636.6489417161922 502.5560629757064L982.2971327285996 116.5171932019602H42.6241684912939L388.1888645605256 502.5560629757063L512.4710874778439 394.0335105828381L636.6489417161922 502.5560629757064zM976.5777291210508 884.4619330622459H48.3018246272547L512.4502137420499 479.0313627358983L976.5777291210508 884.4619330622459zM684.950766343447 544.700135543739L1025.2970284641851 164.5476592638933V842.0256281930976L684.950766343447 544.700135543739zM-0.3548535084975 842.0256281930976V164.5267855280993L339.9496611406527 544.741883015327L-0.3548535084975 842.0256281930976zM-0.3548535084975 842.0256281930976" />
    <glyph glyph-name="map"
      unicode="&#xE025;"
      horiz-adv-x="719.46875" d="M614.08221875 897.7093125C473.598125 1036.2226875 245.8080625 1036.2226875 105.2926875 897.7093125C-21.30253125 772.86584375 -35.5355 537.69340625 71.946875 396.42728125L343.87478125 9.134125C351.5386875 -1.8143125 367.9300625 -1.8143125 375.59396875 9.134125L647.521875 396.42728125C754.879125 537.69340625 740.6774375 772.86584375 614.08221875 897.7093125L614.08221875 897.7093125zM363.20659375 533.0950625C297.57853125 533.0950625 244.46296875 585.5537187499999 244.46296875 650.274625C244.46296875 714.9016875 297.57853125 767.42290625 363.20659375 767.42290625C428.83465625 767.42290625 481.9815 714.9016875 481.9815 650.274625C481.9815 585.5537187499999 428.83465625 533.0950625 363.20659375 533.0950625L363.20659375 533.0950625z" />
    <glyph glyph-name="map2-01"
      unicode="&#xE026;"
      horiz-adv-x="1001" d="M500.5 1001.12012C328.9085800000001 1001.12012 189.30912 861.52066 189.30912 689.96928C189.30912 646.52588 198.2981 605.16456 214.4142 567.5469800000001C214.83462 566.20564 215.13492 564.8242600000001 215.75554 563.52296L474.79432 15.8158C479.43896 5.9659600000001 489.3889 -0.3803799999999 500.33984 -0.3803799999999S521.24072 5.9459400000001 525.90538 15.8158L784.9441599999999 563.52296C785.1844 564.02346 785.2644799999999 564.6040399999999 785.4446599999999 565.1646000000001C802.2614599999999 603.3827799999999 811.6908799999999 645.58494 811.6908799999999 689.96928C811.6908799999999 861.52066 672.0714 1001.12012 500.5 1001.12012zM500.5 496.65616C393.93354 496.65616 307.2069 583.3828000000001 307.2069 689.9893C307.2069 796.55576 393.93354 883.26238 500.5 883.26238C607.0864799999999 883.26238 693.7730799999999 796.55576 693.7730799999999 689.9893C693.77308 583.3627799999999 607.08648 496.65616 500.5 496.65616z" />
    <glyph glyph-name="member-01"
      unicode="&#xE027;"
      horiz-adv-x="983.04206" d="M638.95832 460.3198599999999H344.06372C154.3542 460.3198599999999 0 305.9456399999999 0 116.2561400000001V17.9379200000001H983.04206V116.2561400000001C983.04206 305.9456399999999 828.68786 460.3198599999999 638.95832 460.3198599999999zM98.27818 116.2561400000001C98.27818 251.7515000000001 208.52832 361.98162 344.06372 361.98162H638.95832C774.45368 361.98162 884.7438599999999 251.7314800000002 884.7438599999999 116.2561400000001H98.27818zM491.51102 509.48898C626.98636 509.48898 737.25652 619.7391200000001 737.25652 755.21446S626.98636 1001 491.51102 1001C355.97562 1001 245.72548 890.70982 245.72548 755.21446S355.99564 509.48898 491.51102 509.48898zM491.51102 902.68178C572.81224 902.68178 638.95832 836.51568 638.95832 755.21446C638.95832 673.8732 572.81224 607.72712 491.5110199999999 607.72712C410.1897799999999 607.72712 344.0637199999999 673.8732 344.0637199999999 755.21446C344.06372 836.5357 410.2098 902.68178 491.51102 902.68178z" />
    <glyph glyph-name="member"
      unicode="&#xE028;"
      horiz-adv-x="1001" d="M593.9266666666667 784.1166666666667C640.64 754.0866666666666 674.0066666666667 704.0366666666666 680.6800000000001 647.3133333333333C700.7000000000002 637.3033333333333 720.72 633.9666666666667 744.0766666666667 633.9666666666667C827.4933333333333 633.9666666666667 894.2266666666667 700.7 894.2266666666667 784.1166666666667C894.2266666666667 867.5333333333333 827.4933333333333 934.2666666666667 744.0766666666667 934.2666666666667C663.9966666666667 930.93 597.2633333333333 864.1966666666667 593.9266666666667 784.1166666666667M507.1733333333333 477.1433333333333C590.59 477.1433333333333 657.3233333333333 543.8766666666667 657.3233333333333 627.2933333333333C657.3233333333333 710.71 590.59 777.4433333333334 507.1733333333333 777.4433333333334C423.7566666666667 777.4433333333334 357.0233333333333 710.71 357.0233333333333 627.2933333333333C357.0233333333333 543.8766666666667 423.7566666666667 477.1433333333333 507.1733333333333 477.1433333333333M570.57 467.1333333333333H443.7766666666667C337.0033333333334 467.1333333333333 250.2500000000001 380.38 250.2500000000001 273.6066666666667V116.7833333333333L250.2500000000001 113.4466666666666L260.2600000000001 110.1099999999999C360.36 80.0799999999999 450.45 66.7333333333332 520.5200000000001 66.7333333333332C660.6600000000001 66.7333333333332 744.0766666666667 106.7733333333332 747.4133333333334 110.1099999999999L757.4233333333334 116.7833333333332H757.4233333333334V273.6066666666666C764.0966666666666 380.38 677.3433333333334 467.1333333333333 570.57 467.1333333333333M807.4733333333334 620.62H680.68C680.68 570.5699999999999 657.3233333333333 523.8566666666666 623.9566666666667 490.49C717.3833333333333 463.7966666666666 787.4533333333334 373.7066666666666 787.4533333333334 273.6066666666667V226.8933333333333C910.91 230.23 984.3166666666668 266.9333333333333 987.6533333333334 270.27L997.6633333333334 276.9433333333334H997.6633333333334V433.7666666666667C1001 533.8666666666667 914.2466666666666 620.62 807.4733333333334 620.62M256.9233333333334 630.63C286.9533333333333 630.63 313.6466666666667 640.6400000000001 337.0033333333334 653.9866666666667C343.6766666666666 700.7 370.37 744.0766666666666 407.0733333333333 774.1066666666666C407.0733333333333 777.4433333333333 407.0733333333333 780.78 407.0733333333333 784.1166666666667C407.0733333333333 867.5333333333333 340.34 934.2666666666667 256.9233333333333 934.2666666666667C173.5066666666666 934.2666666666667 106.7733333333333 867.5333333333333 106.7733333333333 784.1166666666667C106.7733333333333 697.3633333333333 173.5066666666667 630.63 256.9233333333334 630.63M390.39 490.49C357.0233333333333 523.8566666666666 333.6666666666667 567.2333333333333 333.6666666666667 617.2833333333333C330.3300000000001 617.2833333333333 323.6566666666667 617.2833333333333 320.32 617.2833333333333H193.5266666666667C86.7533333333334 620.62 0 533.8666666666667 0 427.0933333333334V270.27L0 266.9333333333333L10.01 266.9333333333333C90.09 240.24 163.4966666666667 230.2299999999999 226.8933333333333 226.8933333333333V273.6066666666667C226.8933333333333 377.0433333333333 296.9633333333334 463.7966666666666 390.39 490.49" />
    <glyph glyph-name="qa-circle"
      unicode="&#xE029;"
      horiz-adv-x="1001" d="M500.5 1001C225.225 1001 0 775.775 0 500.5C0 225.225 225.225 0 500.5 0C775.775 0 1001 225.225 1001 500.5C1001 775.775 775.775 1001 500.5 1001zM550.5500000000001 155.7111111111111H456.0111111111112V253.0305555555556H550.5500000000001V155.7111111111111zM670.1138888888889 556.1111111111111C647.8694444444445 522.7444444444444 620.063888888889 489.3777777777778 583.9166666666667 453.2305555555555C567.2333333333333 436.5472222222222 556.1111111111111 422.6444444444444 553.3305555555555 408.7416666666666C550.55 394.8388888888889 547.7694444444445 375.375 547.7694444444445 347.5694444444445H456.0111111111111C456.0111111111111 392.0583333333334 461.5722222222222 422.6444444444444 467.1333333333333 442.1083333333333C475.475 458.7916666666666 494.9388888888888 483.8166666666666 525.525 511.6222222222221C556.1111111111111 547.7694444444444 578.3555555555555 575.5749999999999 592.2583333333333 595.0388888888888S611.7222222222222 639.5277777777777 611.7222222222222 664.5527777777777C611.7222222222222 697.9194444444444 603.3805555555555 722.9444444444443 586.6972222222222 739.6277777777777C570.0138888888888 756.311111111111 544.9888888888888 767.4333333333333 511.6222222222222 767.4333333333333C483.8166666666667 767.4333333333333 458.7916666666667 759.0916666666666 439.3277777777778 745.1888888888888C419.8638888888889 728.5055555555555 408.7416666666667 706.261111111111 408.7416666666667 678.4555555555555H322.5444444444445L319.7638888888889 681.236111111111C319.7638888888889 731.286111111111 336.4472222222223 770.2138888888887 372.5944444444445 800.8C408.7416666666668 831.386111111111 456.0111111111111 845.2888888888888 511.6222222222222 845.2888888888888C572.7944444444444 845.2888888888888 620.0638888888889 828.6055555555555 653.4305555555555 798.0194444444444C686.7972222222222 767.4333333333332 703.4805555555556 722.9444444444443 703.4805555555556 667.3333333333333C703.4805555555556 625.625 692.3583333333333 589.4777777777778 670.1138888888889 556.1111111111111z" />
    <glyph glyph-name="qa"
      unicode="&#xE02A;"
      horiz-adv-x="1001" d="M989.52854 540.0395000000001C980.41944 677.9773 912.0311199999998 806.806 803.7629599999999 892.27138C695.4147199999999 977.7768 554.09354 1013.1121 417.29688 990.2893C173.35318 948.12718 -5.62562 722.44172 11.45144 473.91344C19.45944 354.2338800000001 69.60954 243.66342 153.9538 159.3391800000001C132.29216 127.4072800000001 112.93282 106.86676 61.62156 65.8658000000002C51.39134 57.8978400000001 46.80676 45.3252800000001 50.23018 32.8328000000001C52.53248 20.3002800000003 61.62156 10.0300200000002 73.05298 6.5465400000002C90.13004 0.9009000000002 115.19508 -1.4013999999999 143.70356 -1.4013999999999C204.12392 -1.4013999999999 280.50022 12.3123000000002 339.77944 43.0830400000002C418.43802 15.7157000000002 502.84234 8.8688600000002 586.02544 23.6636400000002C829.96914 66.9869199999999 1006.62562 293.8135200000001 989.52854 540.0395000000001zM532.21168 264.4642C521.84132 254.9547 509.9093999999999 250.20996 496.37588 250.20996C482.36188 250.20996 470.08962 254.9146599999999 459.67922 264.3240599999999C449.2287800000001 273.7334599999999 443.9835400000001 286.84656 443.9835400000001 303.74344C443.9835400000001 318.7784599999999 449.0285800000001 331.3910599999999 459.1386800000001 341.6212800000001C469.2087400000001 351.83148 481.6611800000001 356.9766200000001 496.3758800000001 356.9766200000001C510.8703600000001 356.9766200000001 523.0225 351.8314800000002 532.8723400000001 341.6212800000001C542.7622200000001 331.3910599999999 547.68714 318.77846 547.68714 303.74344C547.68714 287.1068200000001 542.58204 274.01374 532.21168 264.4642zM660.94028 595.1545600000001C653.0123600000001 579.91934 643.62298 566.7461800000001 632.67204 555.67512C621.80118 544.62408 602.2016000000001 525.98546 573.9133400000001 499.77928C566.0655000000002 492.3919 559.8392800000001 485.9054199999999 555.1546000000001 480.3398599999999C550.4098600000001 474.71424 546.88634 469.6091399999999 544.6441000000001 464.98452C542.3418000000001 460.33988 540.5600200000001 455.6551999999999 539.2387000000001 451.0105599999999C537.99746 446.42598 536.07554 438.2378 533.6130800000001 426.54612C529.2287000000001 401.8014 515.5550400000001 389.42904 492.5720800000001 389.42904C480.6401600000001 389.42904 470.5701000000001 393.4930999999999 462.4019400000001 401.56116C454.2337800000001 409.64924 450.1497000000001 421.70128 450.1497000000001 437.6372C450.1497000000001 457.6572 453.1326800000002 474.95448 459.1186600000001 489.60912C465.0646000000002 504.2437400000001 472.9925200000002 517.09658 482.9024200000001 528.1676399999999C492.7522600000001 539.2387 506.0855800000001 552.39184 522.8823600000001 567.64708C537.5570200000001 580.96038 548.2076600000001 591.03044 554.7942400000002 597.81722C561.3007400000001 604.5839800000001 566.8462800000001 612.13152 571.2907200000002 620.4998800000001C575.8152400000001 628.8282 578.0574800000002 637.87724 578.0574800000002 647.62698C578.0574800000002 666.6860200000001 571.1906200000002 682.74206 557.5369800000002 695.83514C543.8433000000002 708.9082000000001 526.2257000000002 715.45474 504.6041000000002 715.45474C479.3188400000003 715.45474 460.7002400000002 708.8481400000001 448.7683200000002 695.63494C436.8163800000002 682.42174 426.7062800000002 662.9823200000001 418.4380200000002 637.2366C410.6302200000002 610.34974 395.7954000000002 596.8962999999999 373.9736000000002 596.8962999999999C361.1007400000002 596.8962999999999 350.2098600000002 601.6009999999999 341.3810400000002 611.0103999999999C332.5522200000002 620.4197999999999 328.1478200000002 630.58996 328.1478200000002 641.5409C328.1478200000002 664.1634999999999 335.1548200000002 687.06638 349.1688200000002 710.26956C363.1828200000002 733.4927599999999 383.6232400000002 752.7119599999999 410.5101000000002 767.9471799999999C437.3969600000002 783.1823999999999 468.7683000000002 790.79 504.6041000000002 790.79C537.9574200000002 790.79 567.3668000000002 784.4436599999999 592.8722800000002 771.6909199999999C618.3377200000001 758.9381799999999 638.0974600000002 741.6408999999999 651.9913400000002 719.7189999999998C665.8852200000002 697.8171199999999 672.7921200000002 674.0333599999999 672.7921200000002 648.3076599999999C672.81214 628.1275 668.90824 610.36976 660.94028 595.1545600000001z" />
    <glyph glyph-name="speaker"
      unicode="&#xE02B;"
      horiz-adv-x="1001.0078203735967" d="M857.6681927202557 922.6554973085728V294.1477120915007C857.6681927202557 254.6939272963071 820.8342330799461 226.9707028961164 782.6786303017993 236.9494996054657C679.997124977539 263.7812014156362 571.9430229923672 376.2538144829257 393.3569715388402 376.2538144829257H179.0552738693271C60.7017398573426 376.2538144829257 0.4692224158001 490.126274424019 0.4692224158001 608.4719880624068C0.4692224158001 726.8177017007946 60.7017398573427 840.5493949171479 179.0552738693271 840.5493949171479H393.3491511652435C571.9352026187705 840.5493949171479 679.9893046039422 953.0376487316308 782.6708099282026 979.8615301682046C820.834233079946 989.8403268775538 857.6681927202557 962.1092821037664 857.6681927202557 922.6554973085728M490.0715318088422 126.2442909710233C469.6681770951336 175.5126446300362 395.3120649380073 215.3339869842734 386.8973429479918 285.7173493542919C383.1983062367675 316.9753826201767 356.7107008648506 340.5538090141329 325.2415175118556 340.5538090141329H179.0552738693271L214.7630997117165 119.1355713716513C229.6530910397738 44.380620161095 250.4787459277026 19.0895319494684 321.9100383596747 19.0895319494684H457.9454370737271C500.0503285181916 19.0817115758716 511.2178220142345 75.2085328791631 490.0715318088422 126.2442909710233M893.376018562645 733.4102766427864V483.3929327572872C952.537144821444 483.3929327572872 1000.5307775841998 519.1085789732732 1000.5307775841998 590.5398714052453V626.2555176212314C1000.5307775841998 697.6946304268001 952.5449651950406 733.4102766427864 893.376018562645 733.4102766427864" />
    <glyph glyph-name="talk"
      unicode="&#xE02C;"
      horiz-adv-x="1024.9630486914816" d="M256.204233135231 291.6269627776041V402.0698988635179H128.0603690960275C104.5356688562194 402.0698988635179 85.3944531331457 421.2319883223855 85.3944531331457 444.7566885621937V871.7498279637159C85.3944531331457 895.2745282035241 104.5356688562194 914.4783651339798 128.0603690960275 914.4783651339798H768.6126994056929C792.158273381295 914.4783651339798 811.3412365759566 895.2745282035241 811.3412365759566 871.7498279637159V829.0630382650402H896.7356897091023V871.7498279637159C896.7356897091023 942.4491710979042 839.2494213324993 999.8728182671254 768.6126994056929 999.8728182671254H128.0603690960275C57.4236471692211 999.8728182671254 0 942.4282973621104 0 871.7498279637159V444.7566885621938C0 374.0573454280054 57.4236471692211 316.6545719945783 128.0603690960275 316.6545719945783H170.7680325304973V85.4153268689397L401.986403920342 316.6545719945783H426.9722656657283V402.0698988635179H366.5845480137629L256.204233135231 291.6269627776041zM896.7148159733083 786.3553748305703H597.8029194036076C527.1870712125952 786.3553748305703 469.7008028359921 728.8691064539673 469.7008028359921 658.2741319987488V316.6545719945783C469.7008028359921 245.95522886039 527.1870712125952 188.5524554269629 597.8029194036076 188.5524554269629H708.2249817537274L896.7148159733083 1e-13V188.5524554269629C967.3724116359086 188.5524554269629 1024.8169325409237 245.95522886039 1024.8169325409237 316.6545719945783V658.2741319987488C1024.8169325409237 728.8691064539673 967.3724116359086 786.3553748305703 896.7148159733083 786.3553748305703zM939.4224794077782 316.6545719945783C939.4224794077782 293.0463768115943 920.3021374204986 273.9260348243146 896.7148159733083 273.9260348243146H811.3203628401627V206.1698884370766L743.5642164529246 273.9260348243146H597.8029194036075C574.2573454280054 273.9260348243146 555.1161297049317 293.0463768115943 555.1161297049317 316.6545719945783V658.2741319987488C555.1161297049317 681.777958502763 574.2573454280055 700.9400479616306 597.8029194036076 700.9400479616306H896.7148159733083C920.3021374204986 700.9400479616306 939.4224794077782 681.7779585027631 939.4224794077782 658.2741319987488V316.6545719945783z" />
    <glyph glyph-name="tel"
      unicode="&#xE02D;"
      horiz-adv-x="1024.9630486914816" d="M746.7787717651966 503.662370972787L823.5523720154312 516.7084558440204C811.5082264623085 587.136440412887 778.1728703993327 650.8639557918882 727.6584297779168 701.545386299656C674.2007924095506 754.9195287248463 606.5698884370763 788.5679908247315 532.1550203315608 798.9422375143364L521.3424251902825 721.918152434574C578.9539359816494 713.7982692107184 631.326139088729 687.8522156188094 672.7396309039724 646.5639662183297C711.8778855176728 607.4883328120113 737.4482118652903 558.017578980294 746.7787717651966 503.662370972787zM866.8027525805443 836.7236993014285C778.1728703993327 925.2074653320822 666.0809091856948 981.0655823167552 542.320529663226 998.3281618183714L531.5079345219476 921.304076738609C638.4023355228861 906.358481910124 735.339964550099 857.9731623396934 811.8839537066 781.7005317485142C884.4828067980399 709.2269210718382 932.1166718798873 617.6955896152643 949.3792513815034 516.9589406735481L1026.11110416015 530.0258992805756C1005.9470753831718 646.7309561046815 950.8195391512876 752.6442915233031 866.8027525805443 836.7236993014285zM786.543238452716 338.0918986549891C753.8967156709414 370.3000729850902 713.0885621937232 370.3000729850902 680.6716505056822 338.0918986549891C655.8945261182357 313.5861328328641 631.1591492023771 289.0803670107392 606.841247002398 264.1780002085289C600.1616515483264 257.3314148681056 594.5466166197476 255.9120008341154 586.4267333958918 260.4833489729956C570.3957043061201 269.1668230632885 553.3418621624438 276.2638932332395 537.9787926180793 285.7823167552915C466.2148889583984 330.8487123344803 406.0985298717546 388.7942028985508 352.8913773329161 454.0037535189241C326.4443540819517 486.3997914711709 302.9405275779375 521.091940360755 286.5128975080803 560.1049525596914C283.1939735168386 568.0369721614013 283.8410593264518 573.2136586383067 290.2701699509955 579.6636429986446C315.0055468668542 603.5431967469503 339.1355854446876 628.0489625690752 363.4743613804607 652.5547283912001C397.3941820456677 686.620665206965 397.3941820456677 726.4686268376604 363.2656240225209 760.7641747471589C343.9365446773015 780.2811177145242 324.5865915962881 799.3597122302159 305.2575122510686 818.8766551975812C285.2604733604419 838.8528203524138 265.493045563549 858.9751016578043 245.3290167865706 878.7007819831092C212.661620269002 910.5123553331248 171.8952142633718 910.5123553331248 139.4574288395369 878.5337920967575C114.4924408299448 854.0071525388385 90.5920133458451 828.8543009071004 65.2095506203733 804.766009800855C41.7057241163591 782.5354811802732 29.8494421853821 755.3161297049317 27.3445938901053 723.567177562298C23.3994578250443 671.8629340006255 36.0698154519862 623.0183922427275 53.9586070274215 575.5097695756438C90.5920133458451 477.0692315712647 146.3248879157544 389.6291523303097 213.9140444166406 309.4531331456574C305.2366385152747 201.0766969033468 414.2184130956105 115.2856427901157 541.6943175894068 53.4158898967783C599.1388384944219 25.5494526118235 658.6081117714524 4.2164946303827 723.2540715253883 0.6470858096133C767.8194974455218 -1.8368887498697 806.4776561359608 9.4140548430821 837.4542800542175 44.0853299968721C858.7037430924826 67.7352726514442 882.6459180481702 89.3395891982068 905.0851840266918 111.9667187988741C938.3787926180796 145.6151808987595 938.5666562402253 186.2980919612138 905.4817850067772 219.5499530810136C865.9678031487853 259.1891773537692 826.2450839328536 298.6822854759671 786.543238452716 338.0918986549891z" />
    <glyph glyph-name="testtube"
      unicode="&#xE02E;"
      horiz-adv-x="1001" d="M626.1255 1001H374.8745C334.8345000000001 1001 302.302 968.4675 302.302 928.4275C302.302 894.894 325.325 865.865 357.3570000000001 857.857V142.6425000000001C357.3570000000001 63.5635 421.421 -0.5005 500.5 -0.5005C579.579 -0.5005 643.6429999999999 63.5635000000001 643.6429999999999 142.6425000000001V858.3575000000001C675.675 866.3655 698.698 895.3945 698.698 928.928C698.698 968.4675 666.1655 1001 626.1255 1001M500.5 48.048C447.9475 48.048 405.405 90.5905 405.405 143.143V578.0775H595.595V143.143C595.595 90.5905 553.0525 48.048 500.5 48.048M595.595 626.1255H405.405V855.855H595.595V626.1255zM374.8745 903.903C361.361 903.903 350.35 914.914 350.35 928.4275C350.35 941.941 361.361 952.952 374.8745 952.952H626.1255C639.639 952.952 650.65 941.941 650.65 928.4275C650.65 914.914 639.639 903.903 626.1255 903.903H374.8745zM545.0445 328.328C532.0315 328.328 521.0205000000001 340.3400000000001 521.0205000000001 354.8545000000001V485.485C521.0205000000001 499.9995 531.531 512.0115000000001 545.0445 512.0115000000001C558.0575 512.0115000000001 569.0685 499.9995 569.0685 485.485V354.8545000000001C569.0685 340.3400000000001 558.558 328.328 545.0445 328.328M545.0445 316.3159999999999C559.0585 316.3159999999999 570.0695000000001 305.3050000000001 570.0695000000001 291.291C570.0695000000001 277.7775000000001 559.0585 266.266 545.0445 266.266C531.531 266.266 520.0195 277.277 520.0195 291.291C520.0195 305.3050000000001 531.531 316.3159999999999 545.0445 316.3159999999999" />
    <glyph glyph-name="time"
      unicode="&#xE02F;"
      horiz-adv-x="1001" d="M500.5 1001C224.098875 1001 0 776.901125 0 500.5C0 224.098875 224.098875 0 500.5 0C776.901125 0 1001 224.098875 1001 500.5C1001 776.901125 776.901125 1001 500.5 1001zM684.5171666666666 304.0954583333334L669.9192499999999 289.4975416666666C657.782125 277.3604166666666 637.3033333333333 276.7765 624.5405833333332 288.2879999999999L435.9772083333332 453.2444583333332C423.1310416666666 464.71425 413.4129999999999 488.1960416666666 414.2471666666665 505.3798749999999L431.7229583333332 802.9271249999999C432.6822500000001 820.1526666666666 447.4887083333333 834.1666666666666 464.71425 834.1666666666666H485.2764583333334C502.502 834.1666666666666 517.26675 820.1526666666666 518.1009166666668 802.9688333333334L532.4485833333333 555.4715833333332C533.3244583333334 538.2460416666665 543.3761666666667 513.76325 554.7208333333334 500.875375L685.8518333333335 349.5575416666667C697.2382083333333 336.6696666666666 696.696 316.2325833333333 684.5171666666666 304.0954583333334z" />
    </font>
</defs>
</svg>
