<?xml version="1.0" encoding="utf-8"?>
<!-- Generator: Adobe Illustrator 16.0.0, SVG Export Plug-In . SVG Version: 6.00 Build 0)  -->
<!DOCTYPE svg PUBLIC "-//W3C//DTD SVG 1.1//EN" "http://www.w3.org/Graphics/SVG/1.1/DTD/svg11.dtd">
<svg version="1.1" id="圖層_1" xmlns="http://www.w3.org/2000/svg" xmlns:xlink="http://www.w3.org/1999/xlink" x="0px" y="0px"
	 width="468.129px" height="170.079px" viewBox="0 0 468.129 170.079" enable-background="new 0 0 468.129 170.079"
	 xml:space="preserve">
<path fill="#FFFFFF" d="M74.941,109.364c0,0,19.24-14.979,24.636-24.632l-9.238-5.028c-9.403,18.774-17.019,28.275-17.019,28.275
	L74.941,109.364z"/>
<path fill="#FFFFFF" d="M49.967,104.241c-5.49-9.602-24.64-24.197-24.64-24.197l-1.607,1.401c0,0,6.3,5.298,18.368,27.984
	L49.967,104.241z"/>
<path fill="#FFFFFF" d="M66.404,5.333c0.567-0.825,1.14-1.681,1.709-2.545L56.767,0C49.339,18.701,22.149,45.097,0,57.563
	l0.927,1.857C25.599,48.147,51.859,26.659,64.591,7.958c8.852,17.217,33.038,37.662,53.314,49.093l7.816-8.789
	C81.669,28.471,66.404,5.333,66.404,5.333"/>
<path fill="#FFFFFF" d="M109.126,113.749h-43.67V73.912h43.206c0.27,0,0.523-0.014,0.767-0.035l2.029-2.521l-6.097-6.67
	l-4.731,5.319H65.456V49.316h23.818c0.25,0,0.487-0.011,0.715-0.029l2.056-2.554l-6.072-6.644l-4.731,5.319H29.668l1.151,3.908
	h25.636v20.689H15.114l1.151,3.907h40.19v39.836H7.909l1.151,3.908h108.098c0.245,0,0.477-0.01,0.701-0.027l2.063-2.563
	l-6.065-6.637L109.126,113.749z"/>
<path fill="#FFFFFF" d="M209.379,98.01c0,0,11.292-17.478,12.925-26.774l-8.857-1.453c-2.298,17.77-5.763,27.566-5.763,27.566
	L209.379,98.01z"/>
<path fill="#FFFFFF" d="M180.11,71.524l-1.704,0.636c0,0,3.44,6.124,6.261,27.872l7.852-1.775
	C191.02,88.938,180.11,71.524,180.11,71.524"/>
<path fill="#FFFFFF" d="M201.193,11.024c7.135,5.393,12.255,11.722,19.481,23.808l6.334-6.409
	c-5.693-7.642-15.335-14.709-24.805-19.801c0.511-1.279,0.997-2.566,1.432-3.87l-8.43-2.071
	c-4.126,15.661-15.136,35.091-25.075,46.385l0.963,1.373C182.317,39.884,194.375,26.448,201.193,11.024"/>
<path fill="#FFFFFF" d="M203.764,104.17V64.23h18.804c0.25,0,0.488-0.01,0.716-0.029l2.055-2.554l-6.072-6.643l-4.731,5.318h-10.772
	V43.626h14.367c0.25,0,0.487-0.01,0.715-0.028l2.055-2.555l-6.072-6.643l-4.731,5.319h-26.59l1.151,3.907h11.608v16.695h-20.402
	l1.151,3.908h19.251v41.587l-23.208,5.101l7.946,8.692l47.285-18.978l-1.41-1.541L203.764,104.17z"/>
<path fill="#FFFFFF" d="M293.98,73.552l-5.891-6.524l-4.083,4.457H264.54V58.191h16.183v6.039c4.368,0,7.721-3.214,7.721-3.214
	v-39.12l2.303-2.481l-5.889-6.525l-4.084,4.456H254.67c3.189-4.124,7.385-9.585,10.869-15.079l-9.714-2.103
	c-2.304,7.552-4.421,13.311-5.964,17.182h-7.981v-0.359c0-1.205-1.055-1.619-1.055-1.619l-6.666-1.765V64.23
	c4.368,0,7.721-3.214,7.721-3.214v-2.825h14.94v13.294h-18.559c-0.013-1.189-1.052-1.599-1.052-1.599l-6.666-1.764v44.397
	c4.369,0,7.722-3.215,7.722-3.215V75.392h18.555v46.502c4.369,0,7.721-3.215,7.721-3.215V75.392h19.182v27.688
	c-0.295,0.801-0.921,1.553-2.254,1.553c-2.853,0-8.682-1.002-8.682-1.002v2.348c0,0,7.288,1.605,7.938,6.342
	c11.252,2.516,10.955-4.729,10.955-4.729v-6.084l-0.236-0.01v-25.21L293.98,73.552z M241.88,21.254h38.845v14.582H241.88V21.254z
	 M241.88,39.743h38.845v14.54H241.88V39.743z"/>
<path fill="#FFFFFF" d="M462.057,7.19l-4.729,5.319h-48.879l1.15,3.907h26.941v93.094c0,0-0.204,3.771-2.488,3.441
	c-2.095-0.303-9.313-1.139-13.117-2.117v2.391c4.471,1.057,8.539,3.37,10.74,8.254c11.251,2.518,12.586-4.598,12.586-4.598V16.497
	l-0.18-0.08h21.276c0.25,0,0.487-0.01,0.716-0.029l2.056-2.554L462.057,7.19z"/>
<path fill="#FFFFFF" d="M402.517,98.549V27.287l2.305-2.481l-5.891-6.525l-4.084,4.456h-39.323v-0.359
	c0-1.205-1.057-1.619-1.057-1.619l-6.666-1.766v82.77c4.369,0,7.723-3.214,7.723-3.214v-2.825h39.272v6.039
	C399.166,101.763,402.517,98.549,402.517,98.549 M379.045,26.645h15.751v30.633h-15.751V26.645z M371.273,91.817h-15.751V61.184
	h15.751V91.817z M371.273,57.278h-15.751V26.645h15.751V57.278z M379.045,61.185h15.751v30.633h-15.751V61.185z"/>
<path fill="#FFFFFF" d="M19.812,161.928c0,3.723-1.952,5.638-4.601,5.638c-2.452,0-3.929-1.171-5.369-3.354l-1.916,1.646
	c1.477,2.416,3.722,4.148,7.248,4.148c4.199,0,7.322-2.709,7.322-8.113v-15.705h-2.684V161.928z"/>
<rect x="59.626" y="146.188" fill="#FFFFFF" width="2.66" height="23.488"/>
<polygon fill="#FFFFFF" points="115.013,165.016 100.223,146.188 97.734,146.188 97.734,169.676 100.321,169.676 100.321,150.409 
	115.489,169.676 117.6,169.676 117.6,146.188 115.013,146.188 "/>
<path fill="#FFFFFF" d="M190.819,161.928c0,3.723-1.952,5.638-4.601,5.638c-2.452,0-3.929-1.171-5.369-3.354l-1.916,1.646
	c1.477,2.416,3.722,4.148,7.249,4.148c4.198,0,7.321-2.709,7.321-8.113v-15.705h-2.684V161.928L190.819,161.928z"/>
<rect x="230.634" y="146.188" fill="#FFFFFF" width="2.66" height="23.488"/>
<polygon fill="#FFFFFF" points="286.021,165.016 271.23,146.188 268.742,146.188 268.742,169.676 271.329,169.676 271.329,150.409 
	286.497,169.676 288.607,169.676 288.607,146.188 286.021,146.188 "/>
<path fill="#FFFFFF" d="M356.104,146.186h-8.154v23.49h8.154c7.383,0,12.483-5.135,12.483-11.78
	C368.587,151.254,363.485,146.186,356.104,146.186 M356.104,167.227H350.6v-18.592h5.504c5.939,0,9.729,4.094,9.729,9.328
	C365.833,163.2,362.043,167.227,356.104,167.227"/>
<rect x="382.001" y="146.187" fill="#FFFFFF" width="2.651" height="23.489"/>
<polygon fill="#FFFFFF" points="419.544,165.012 404.744,146.186 402.261,146.186 402.261,169.676 404.844,169.676 404.844,150.415 
	420.013,169.676 422.125,169.676 422.125,146.186 419.544,146.186 "/>
<path fill="#FFFFFF" d="M449.509,159.508h7.146v5.841c-1.61,1.308-4.095,2.347-6.778,2.347c-5.705,0-9.295-4.16-9.295-9.799
	c0-5.268,3.725-9.664,8.927-9.664c3.321,0,5.334,1.107,7.146,2.686l1.714-2.014c-2.353-1.98-4.801-3.121-8.76-3.121
	c-7.048,0-11.78,5.705-11.78,12.18c0,6.748,4.564,12.117,11.949,12.117c3.957,0,7.246-1.645,9.428-3.593v-9.36h-9.697V159.508z"/>
</svg>
