<!-- <?xml version="1.0" encoding="utf-8"?> -->
<!-- Generator: Adobe Illustrator 16.0.0, SVG Export Plug-In . SVG Version: 6.00 Build 0)  -->
<!-- <!DOCTYPE svg PUBLIC "-//W3C//DTD SVG 1.1//EN" "http://www.w3.org/Graphics/SVG/1.1/DTD/svg11.dtd"> -->
<svg version="1.1" xmlns="http://www.w3.org/2000/svg" xmlns:xlink="http://www.w3.org/1999/xlink" x="0px" y="0px"
	 width="30px" height="30px" viewBox="0 0 30 30" enable-background="new 0 0 30 30" xml:space="preserve">
<rect y="2.1" fill="none" width="30" height="25.8"/>
<path d="M17.842,6.526c1.417,0.891,2.411,2.394,2.592,4.142c0.578,0.269,1.221,0.423,1.9,0.423c2.484,0,4.497-2.013,4.497-4.494
	c0-2.485-2.013-4.497-4.497-4.497C19.873,2.1,17.879,4.075,17.842,6.526"/>
<path d="M15.202,15.732c2.485,0,4.498-2.011,4.498-4.497c0-2.482-2.013-4.494-4.498-4.494c-2.482,0-4.496,2.012-4.496,4.497
	C10.706,13.722,12.72,15.732,15.202,15.732"/>
<path d="M17.111,16.04h-3.816c-3.174,0-5.758,2.584-5.758,5.759v4.666l0.013,0.073l0.321,0.103c3.029,0.943,5.662,1.26,7.829,1.26
	c4.231,0,6.684-1.205,6.836-1.283l0.3-0.151h0.03V21.8C22.868,18.624,20.285,16.04,17.111,16.04"/>
<path d="M24.243,11.399h-3.786c-0.041,1.514-0.688,2.879-1.711,3.86c2.822,0.839,4.888,3.454,4.888,6.546v1.438
	c3.738-0.138,5.892-1.196,6.034-1.269l0.298-0.151H30v-4.667C30,13.981,27.417,11.399,24.243,11.399"/>
<path d="M7.665,11.093c0.881,0,1.7-0.258,2.392-0.695c0.221-1.437,0.993-2.693,2.092-3.55c0.004-0.084,0.014-0.166,0.014-0.251
	c0-2.483-2.014-4.497-4.498-4.497c-2.482,0-4.496,2.014-4.496,4.497C3.169,9.078,5.183,11.093,7.665,11.093"/>
<path d="M11.706,15.26c-1.018-0.978-1.664-2.334-1.71-3.839c-0.141-0.01-0.28-0.021-0.422-0.021H5.758
	C2.582,11.399,0,13.981,0,17.156v4.667l0.011,0.071l0.321,0.101c2.431,0.761,4.6,1.108,6.485,1.219v-1.407
	C6.817,18.714,8.882,16.098,11.706,15.26"/>
</svg>
