<!-- <?xml version="1.0" encoding="utf-8"?> -->
<!-- Generator: Adobe Illustrator 16.0.0, SVG Export Plug-In . SVG Version: 6.00 Build 0)  -->
<!-- <!DOCTYPE svg PUBLIC "-//W3C//DTD SVG 1.1//EN" "http://www.w3.org/Graphics/SVG/1.1/DTD/svg11.dtd"> -->
<svg version="1.1" xmlns="http://www.w3.org/2000/svg" xmlns:xlink="http://www.w3.org/1999/xlink" x="0px" y="0px"
	 width="49.103px" height="47.955px" viewBox="0 0 49.103 47.955" enable-background="new 0 0 49.103 47.955" xml:space="preserve">
<path fill="#7C7B7C" d="M9.242,47.953c-1.932,0-3.643-0.809-4.831-2.28c-1.063-1.322-1.622-3.104-1.622-5.15l0.01-33.051
	c0.005-4.375,2.66-7.429,6.458-7.429c1.397,0,2.824,0.419,4.252,1.24l28.742,16.544c2.584,1.489,4.067,3.74,4.063,6.176
	c0,2.438-1.482,4.689-4.063,6.174L13.494,46.716C12.066,47.539,10.639,47.953,9.242,47.953z M9.257,6.027
	c-0.085,0-0.13,0.015-0.14,0.02C9.052,6.086,8.783,6.48,8.783,7.474l-0.01,33.048c0,0.992,0.27,1.388,0.335,1.432
	c0.01,0.005,0.055,0.016,0.134,0.016c0.155,0,0.579-0.04,1.268-0.435l28.756-16.542c0.839-0.486,1.059-0.913,1.069-0.993
	c-0.011-0.073-0.23-0.501-1.069-0.986L10.524,6.466C9.835,6.072,9.407,6.027,9.257,6.027z"/>
</svg>
