<?xml version="1.0" encoding="utf-8"?>
<!-- Generator: Adobe Illustrator 16.0.0, SVG Export Plug-In . SVG Version: 6.00 Build 0)  -->
<!DOCTYPE svg PUBLIC "-//W3C//DTD SVG 1.1//EN" "http://www.w3.org/Graphics/SVG/1.1/DTD/svg11.dtd">
<svg version="1.1" id="圖層_1" xmlns="http://www.w3.org/2000/svg" xmlns:xlink="http://www.w3.org/1999/xlink" x="0px" y="0px"
	 width="215.066px" height="148px" viewBox="0 0 215.066 148" enable-background="new 0 0 215.066 148" xml:space="preserve">
<path d="M212.137,66.93l-64-64c-3.906-3.906-10.238-3.906-14.141,0c-3.906,3.906-3.906,10.234,0,14.141L180.922,64H10
	C4.477,64,0,68.477,0,74c0,5.524,4.477,10,10,10h170.922l-46.926,46.93c-3.906,3.906-3.906,10.234,0,14.142
	c1.953,1.953,4.512,2.929,7.07,2.929s5.121-0.976,7.07-2.929l64-64C216.043,77.164,216.043,70.836,212.137,66.93"/>
</svg>
