<!-- <?xml version="1.0" encoding="utf-8"?> -->
<!-- Generator: Adobe Illustrator 16.0.0, SVG Export Plug-In . SVG Version: 6.00 Build 0)  -->
<!-- <!DOCTYPE svg PUBLIC "-//W3C//DTD SVG 1.1//EN" "http://www.w3.org/Graphics/SVG/1.1/DTD/svg11.dtd"> -->
<svg version="1.1" xmlns="http://www.w3.org/2000/svg" xmlns:xlink="http://www.w3.org/1999/xlink" x="0px" y="0px"
	 width="200px" height="200px" viewBox="0 0 200 200" style="enable-background:new 0 0 200 200;" xml:space="preserve">
<path d="M128.1,51.7H75V21.4c0-2.3-1.4-4.4-3.5-5.5c-2.2-1-4.7-0.7-6.6,0.7L2.4,65.1C0.9,66.2,0,68,0,69.8c0,1.8,0.9,3.6,2.3,4.7
	l62.5,48.3c1.1,0.9,2.5,1.3,3.9,1.3c0.9,0,1.8-0.2,2.7-0.6c2.2-1,3.5-3.1,3.5-5.5V87.9h54.4c16.3,0,31.2,11.4,32.9,27.1
	c1.9,18.1-12.8,33.4-31.1,33.4h-50c-3.4,0-6.2,2.7-6.2,6v24.2c0,3.4,2.8,6.1,6.2,6.1h50c40.2,0,72.4-33.6,68.4-73.2
	C196.1,76.9,164,51.7,128.1,51.7z"/>
</svg>
