<!-- <?xml version="1.0" encoding="utf-8"?> -->
<!-- Generator: Adobe Illustrator 16.0.0, SVG Export Plug-In . SVG Version: 6.00 Build 0)  -->
<!-- <!DOCTYPE svg PUBLIC "-//W3C//DTD SVG 1.1//EN" "http://www.w3.org/Graphics/SVG/1.1/DTD/svg11.dtd"> -->
<svg version="1.1" xmlns="http://www.w3.org/2000/svg" xmlns:xlink="http://www.w3.org/1999/xlink" x="0px" y="0px"
	 width="200px" height="200px" viewBox="0 0 200 200" style="enable-background:new 0 0 200 200;" xml:space="preserve">
<path d="M193.1,172.5h-10.7V23.1c0-5.2-4.2-9.4-9.4-9.4h-64c-5.2,0-9.4,4.2-9.4,9.4V57c-1.2-3.8-4.8-6.5-8.9-6.5h-64
	c-5.2,0-9.4,4.2-9.4,9.4v112.6H6.8c-9.1,0-9.1,13.8,0,13.8h186.3C202.2,186.3,202.2,172.5,193.1,172.5z M31.9,62.9H53V84H31.9V62.9z
	 M31.9,94.6H53v21.1H31.9V94.6z M31.9,126.3H53v21.1H31.9V126.3z M66.9,172.5H49.7V158h17.2V172.5z M84.6,147.4H63.5v-21.1h21.1
	V147.4z M84.6,115.7H63.5V94.6h21.1V115.7z M84.6,84H63.5V62.9h21.1V84z M114.7,31.2h21.1v21.1h-21.1V31.2z M114.7,62.9h21.1V84
	h-21.1V62.9z M114.7,94.6h21.1v21.1h-21.1V94.6z M114.7,126.3h21.1v21.1h-21.1V126.3z M149.7,172.5h-17.2V158h17.2V172.5z
	 M167.5,147.4h-21.1v-21.1h21.1V147.4z M167.5,115.7h-21.1V94.6h21.1V115.7z M167.5,84h-21.1V62.9h21.1V84z M167.5,52.3h-21.1V31.2
	h21.1V52.3z"/>
</svg>
