<!-- <?xml version="1.0" encoding="utf-8"?> -->
<!-- Generator: Adobe Illustrator 16.0.0, SVG Export Plug-In . SVG Version: 6.00 Build 0)  -->
<!-- <!DOCTYPE svg PUBLIC "-//W3C//DTD SVG 1.1//EN" "http://www.w3.org/Graphics/SVG/1.1/DTD/svg11.dtd"> -->
<svg version="1.1" xmlns="http://www.w3.org/2000/svg" xmlns:xlink="http://www.w3.org/1999/xlink" x="0px" y="0px"
	 width="34.301px" height="29.4px" viewBox="0 0 34.301 29.4" enable-background="new 0 0 34.301 29.4" xml:space="preserve">
<path fill="#595757" d="M1.264,6.163C0.421,7.005,0,8.014,0,9.187v15.926c0,1.174,0.421,2.182,1.264,3.023
	c0.842,0.843,1.85,1.264,3.024,1.264h0.613V4.9H4.288C3.114,4.9,2.105,5.321,1.264,6.163"/>
<path fill="#595757" d="M24.5,1.837c0-0.511-0.178-0.944-0.535-1.302C23.607,0.178,23.174,0,22.663,0H11.638
	c-0.51,0-0.945,0.178-1.302,0.535C9.979,0.894,9.801,1.326,9.801,1.837V4.9H6.737v24.5h20.827V4.9H24.5V1.837z M12.25,2.449h9.801
	v2.45H12.25V2.449z M24.5,18.987c0,0.18-0.057,0.326-0.171,0.441c-0.115,0.114-0.262,0.171-0.44,0.171h-4.288v4.288
	c0,0.179-0.058,0.326-0.172,0.44s-0.262,0.172-0.44,0.172h-3.675c-0.178,0-0.325-0.058-0.44-0.172
	c-0.115-0.114-0.172-0.262-0.172-0.44V19.6h-4.288c-0.179,0-0.325-0.057-0.44-0.171c-0.115-0.115-0.172-0.262-0.172-0.441v-3.675
	c0-0.179,0.057-0.325,0.172-0.44c0.115-0.115,0.261-0.172,0.44-0.172H14.7v-4.288c0-0.178,0.058-0.325,0.173-0.44
	c0.115-0.115,0.261-0.173,0.44-0.173h3.675c0.179,0,0.325,0.058,0.44,0.173c0.114,0.115,0.172,0.262,0.172,0.44V14.7h4.288
	c0.178,0,0.325,0.057,0.439,0.172c0.115,0.115,0.172,0.261,0.172,0.44V18.987z"/>
<path fill="#595757" d="M33.038,6.163C32.195,5.321,31.188,4.9,30.014,4.9H29.4v24.5h0.613c1.174,0,2.182-0.421,3.024-1.264
	c0.842-0.842,1.263-1.85,1.263-3.023V9.187C34.301,8.014,33.88,7.005,33.038,6.163"/>
<rect y="0" fill="none" width="34.301" height="29.4"/>
</svg>
