<!-- <?xml version="1.0" encoding="utf-8"?> -->
<!-- Generator: Adobe Illustrator 16.0.0, SVG Export Plug-In . SVG Version: 6.00 Build 0)  -->
<!-- <!DOCTYPE svg PUBLIC "-//W3C//DTD SVG 1.1//EN" "http://www.w3.org/Graphics/SVG/1.1/DTD/svg11.dtd"> -->
<svg version="1.1" xmlns="http://www.w3.org/2000/svg" xmlns:xlink="http://www.w3.org/1999/xlink" x="0px" y="0px"
	 width="50px" height="50px" viewBox="0 0 50 50" enable-background="new 0 0 50 50" xml:space="preserve">
<path fill="#585959" d="M45.592,0H26.458v8.351c3.172-0.404,5.76,1.901,5.854,4.75c0.105,3.134-2.606,5.689-5.854,5.177v5.251h7.321
	c1.057,0,1.784,1.161,1.31,2.12l-0.308,0.618c-0.345,0.685-0.301,1.482,0.114,2.13c0.419,0.653,1.086,0.984,1.893,0.988
	c0.928-0.031,1.43-0.648,1.646-1.012c0.421-0.706,0.46-1.593,0.099-2.313c-0.245-0.492-0.218-0.456-0.218-0.456
	c-0.456-0.987,0.301-2.075,1.322-2.075h10.349V4.394C49.986,1.967,48.021,0,45.592,0z"/>
<path fill="#585959" d="M13.455,17.675c3.033,0.099,5.156,2.933,4.787,5.854h5.288v-7.323c0-1.038,1.155-1.792,2.12-1.309
	l0.618,0.308c0.684,0.347,1.482,0.301,2.129-0.114c0.655-0.419,1.015-1.11,0.989-1.895c-0.031-0.926-0.648-1.428-1.012-1.645
	c-0.702-0.42-1.589-0.46-2.313-0.101l-0.412,0.208c-0.965,0.482-2.12-0.273-2.12-1.309V0H4.394C1.967,0,0,1.967,0,4.394v19.135
	h8.248C7.763,20.451,10.222,17.552,13.455,17.675z"/>
<path fill="#585959" d="M36.885,32.312c-3.049,0.145-5.694-2.579-5.18-5.854h-5.247v7.321c0,1.077-1.139,1.8-2.12,1.311
	l-0.618-0.309c-0.686-0.345-1.484-0.3-2.129,0.114c-0.655,0.419-1.016,1.109-0.989,1.894c0.031,0.927,0.648,1.428,1.012,1.646
	c0.706,0.421,1.594,0.463,2.313,0.099l0.412-0.205c0.972-0.49,2.12,0.226,2.12,1.311v10.348h19.134c2.429,0,4.395-1.967,4.395-4.395
	V26.458h-8.351C42.038,29.632,39.734,32.218,36.885,32.312z"/>
<path fill="#585959" d="M17.675,36.885c-0.111-3.306,2.839-5.69,5.854-5.205v-5.222h-7.322c-1.085,0-1.798-1.146-1.31-2.12
	l0.205-0.411c0.36-0.721,0.322-1.606-0.098-2.313c-0.218-0.365-0.72-0.981-1.646-1.013c-0.792,0.02-1.475,0.334-1.895,0.989
	c-0.414,0.647-0.457,1.443-0.114,2.129l0.31,0.618c0.489,0.974-0.226,2.12-1.31,2.12H0v19.134c0,2.428,1.967,4.395,4.394,4.395
	h19.135v-8.313C20.52,42.033,17.771,39.857,17.675,36.885z"/>
</svg>
