<!-- <?xml version="1.0" encoding="utf-8"?> -->
<!-- Generator: Adobe Illustrator 16.0.0, SVG Export Plug-In . SVG Version: 6.00 Build 0)  -->
<!-- <!DOCTYPE svg PUBLIC "-//W3C//DTD SVG 1.1//EN" "http://www.w3.org/Graphics/SVG/1.1/DTD/svg11.dtd"> -->
<svg version="1.1" xmlns="http://www.w3.org/2000/svg" xmlns:xlink="http://www.w3.org/1999/xlink" x="0px" y="0px"
	 width="200px" height="200px" viewBox="0 0 200 200" style="enable-background:new 0 0 200 200;" xml:space="preserve">
<path d="M178.1,53.1c1,1,2.1,2.4,3.1,4h-52.7V4.5c1.6,1,3,2.1,4,3.1L178.1,53.1z M125,71.4h60.7v117.9c0,3-1,5.5-3.1,7.6
	c-2.1,2.1-4.6,3.1-7.6,3.1H25c-3,0-5.5-1-7.6-3.1c-2.1-2.1-3.1-4.6-3.1-7.6V10.7c0-3,1-5.5,3.1-7.6C19.5,1,22,0,25,0h89.3v60.7
	c0,3,1,5.5,3.1,7.6C119.5,70.4,122,71.4,125,71.4z M142.9,153.6v-7.1c0-1-0.3-1.9-1-2.6c-0.7-0.7-1.5-1-2.6-1H60.7
	c-1,0-1.9,0.3-2.6,1c-0.7,0.7-1,1.5-1,2.6v7.1c0,1,0.3,1.9,1,2.6s1.5,1,2.6,1h78.6c1,0,1.9-0.3,2.6-1S142.9,154.6,142.9,153.6z
	 M142.9,125v-7.1c0-1-0.3-1.9-1-2.6c-0.7-0.7-1.5-1-2.6-1H60.7c-1,0-1.9,0.3-2.6,1c-0.7,0.7-1,1.5-1,2.6v7.1c0,1,0.3,1.9,1,2.6
	c0.7,0.7,1.5,1,2.6,1h78.6c1,0,1.9-0.3,2.6-1C142.5,126.9,142.9,126,142.9,125z M142.9,96.4v-7.1c0-1-0.3-1.9-1-2.6
	c-0.7-0.7-1.5-1-2.6-1H60.7c-1,0-1.9,0.3-2.6,1c-0.7,0.7-1,1.5-1,2.6v7.1c0,1,0.3,1.9,1,2.6s1.5,1,2.6,1h78.6c1,0,1.9-0.3,2.6-1
	S142.9,97.5,142.9,96.4z"/>
</svg>
