<!-- <?xml version="1.0" encoding="utf-8"?> -->
<!-- Generator: Adobe Illustrator 16.0.0, SVG Export Plug-In . SVG Version: 6.00 Build 0)  -->
<!-- <!DOCTYPE svg PUBLIC "-//W3C//DTD SVG 1.1//EN" "http://www.w3.org/Graphics/SVG/1.1/DTD/svg11.dtd"> -->
<svg version="1.1" xmlns="http://www.w3.org/2000/svg" xmlns:xlink="http://www.w3.org/1999/xlink" x="0px" y="0px"
	 width="49.103px" height="50px" viewBox="0 0 49.103 50" enable-background="new 0 0 49.103 50" xml:space="preserve">
<path fill="#040000" d="M49.045,22.892C48.59,15.983,45.164,9.531,39.74,5.249c-5.426-4.283-12.505-6.053-19.357-4.91
	C8.164,2.452-0.8,13.756,0.057,26.203c0.399,5.995,2.911,11.533,7.137,15.758c-1.085,1.599-2.055,2.627-4.625,4.682
	c-0.514,0.399-0.742,1.028-0.572,1.655c0.115,0.627,0.572,1.142,1.142,1.314c0.857,0.284,2.113,0.399,3.54,0.399
	c3.026,0,6.852-0.686,9.821-2.229c3.94,1.371,8.164,1.714,12.333,0.973C41.053,46.586,49.902,35.225,49.045,22.892z M13.131,29
	c-2.226,0-3.997-1.771-3.997-3.997c0-2.227,1.771-3.996,3.997-3.996c2.227,0,3.997,1.77,3.997,3.996
	C17.128,27.229,15.358,29,13.131,29z M24.551,29c-2.226,0-3.997-1.771-3.997-3.997c0-2.227,1.771-3.996,3.997-3.996
	c2.226,0,3.997,1.77,3.997,3.996C28.548,27.229,26.777,29,24.551,29z M35.97,29c-2.226,0-3.996-1.771-3.996-3.997
	c0-2.227,1.771-3.996,3.996-3.996c2.229,0,3.998,1.77,3.998,3.996C39.968,27.229,38.198,29,35.97,29z"/>
</svg>
