<?xml version="1.0" encoding="utf-8"?>
<!-- Generator: Adobe Illustrator 16.0.0, SVG Export Plug-In . SVG Version: 6.00 Build 0)  -->
<!DOCTYPE svg PUBLIC "-//W3C//DTD SVG 1.1//EN" "http://www.w3.org/Graphics/SVG/1.1/DTD/svg11.dtd">
<svg version="1.1" id="圖層_1" xmlns="http://www.w3.org/2000/svg" xmlns:xlink="http://www.w3.org/1999/xlink" x="0px" y="0px"
	 width="100px" height="100px" viewBox="0 0 100 100" enable-background="new 0 0 100 100" xml:space="preserve">
<path d="M49.224,63.799c-6.889-0.39-12.391-5.892-12.781-12.78L49.224,63.799z M50,74.065c-13.158,0-23.823-10.666-23.823-23.824
	c0-2.837,0.499-5.558,1.408-8.081L14.749,29.324C8.285,34.96,3.183,42.119,0,50.241c7.825,19.974,27.254,34.121,50,34.121
	c5.952,0,11.673-0.977,17.022-2.766l-8.94-8.939C55.559,73.567,52.838,74.065,50,74.065z M95.1,90.15
	c1.367,1.366,1.367,3.583,0,4.949c-0.684,0.684-1.579,1.025-2.475,1.025s-1.791-0.342-2.475-1.025L4.9,9.85
	c-1.367-1.367-1.367-3.583,0-4.95c1.367-1.366,3.583-1.366,4.95,0l16.645,16.645C33.594,18.076,41.565,16.12,50,16.12
	c22.746,0,42.176,14.152,50,34.122c-3.988,10.181-10.997,18.84-19.919,24.891L95.1,90.15z M35.955,31.005l15.519,15.519
	c0.059-0.399,0.097-0.805,0.097-1.22c0-3.746-2.479-6.91-5.885-7.947C47.044,36.9,48.49,36.646,50,36.646
	c7.51,0,13.597,6.087,13.597,13.596c0,2.422-0.637,4.691-1.748,6.657l7.388,7.389c2.882-3.938,4.587-8.791,4.587-14.046
	c0-13.156-10.665-23.822-23.823-23.822C44.746,26.419,39.893,28.124,35.955,31.005z"/>
</svg>
