<?xml version="1.0" encoding="utf-8"?>
<!-- Generator: Adobe Illustrator 16.0.0, SVG Export Plug-In . SVG Version: 6.00 Build 0)  -->
<!DOCTYPE svg PUBLIC "-//W3C//DTD SVG 1.1//EN" "http://www.w3.org/Graphics/SVG/1.1/DTD/svg11.dtd">
<svg version="1.1" id="圖層_1" xmlns="http://www.w3.org/2000/svg" xmlns:xlink="http://www.w3.org/1999/xlink" x="0px" y="0px"
	 width="100px" height="100px" viewBox="0 0 100 100" enable-background="new 0 0 100 100" xml:space="preserve">
<path d="M63.597,50.241c0,7.511-6.087,13.597-13.597,13.597c-7.511,0-13.596-6.086-13.596-13.597c0-0.077,0.009-0.152,0.011-0.228
	c1.498,2.176,4.005,3.604,6.845,3.604c4.59,0,8.311-3.724,8.311-8.313c0-3.746-2.479-6.91-5.885-7.947
	C47.044,36.9,48.49,36.646,50,36.646C57.51,36.646,63.597,42.732,63.597,50.241z M100,50.241c-7.824,19.974-27.254,34.121-50,34.121
	S7.825,70.215,0,50.241C7.825,30.271,27.254,16.12,50,16.12S92.176,30.271,100,50.241z M73.823,50.241
	c0-13.156-10.665-23.822-23.823-23.822S26.177,37.085,26.177,50.241c0,13.158,10.665,23.824,23.823,23.824
	S73.823,63.399,73.823,50.241z"/>
</svg>
