<!-- <?xml version="1.0" encoding="utf-8"?> -->
<!-- Generator: Adobe Illustrator 16.0.0, SVG Export Plug-In . SVG Version: 6.00 Build 0)  -->
<!-- <!DOCTYPE svg PUBLIC "-//W3C//DTD SVG 1.1//EN" "http://www.w3.org/Graphics/SVG/1.1/DTD/svg11.dtd"> -->
<svg version="1.1" xmlns="http://www.w3.org/2000/svg" xmlns:xlink="http://www.w3.org/1999/xlink" x="0px" y="0px"
	 width="200px" height="200px" viewBox="0 0 200 200" style="enable-background:new 0 0 200 200;" xml:space="preserve">
<g>
	<g>
		<path d="M192.6,18.3c-6.4-9.9-32.2-27.6-57.7-12.1c-22.5,13.6-25.4,26.4-22.9,60.6c0.8,10.7,3.9,18.2,9.2,22.5
			c6.1,4.9,13.3,3.9,13.4,3.8c2.2-0.3,4.3,1.1,4.7,3.3c0.4,2.2-0.9,4.4-3.1,4.9c-0.2,0-17.4,4.1-24.1,7.3
			c-8.4,3.9-16.2,11.7-16.2,11.7c-1.6,1.6-4.3,1.6-5.9,0c-1.6-1.6-1.6-4.3,0-5.9c0.4-0.4,8.8-8.8,18.6-13.4c2.5-1.2,6-2.4,9.7-3.5
			c-0.7-0.5-1.5-1-2.2-1.5c-3.1-2.5-5.7-5.7-7.7-9.5c-1.8,0.2-8.4,1.1-15.6,5.2c-10.3,5.9-19,16.1-25.8,30.5c-3.5,7.4-4,13.8-1.3,18
			c1.9,3.1,5.5,4.9,9.7,4.9c14.4,0,37.4-11.1,37.7-11.2c2.5-1.2,5.4-0.2,6.6,2.3c1.2,2.5,0.2,5.5-2.3,6.7c-1,0.5-25.3,12.2-42,12.2
			c-7.6,0-14.3-3.6-18.1-9.6c-2.6-4.2-6-13.4,0.7-27.7c2.3-4.8,4.7-9.2,7.4-13.2c0-0.4,0.1-0.8,0.2-1.2c3.4-11.9-3.8-20.2-8.6-23.2
			c-5.9-3.7-12.7-3.1-21.5,1.8c-5.2,2.9-12,12.9-13.9,16.2c-1.4,2.4-4.5,3.1-6.8,1.7c-2.4-1.4-3.1-4.5-1.7-6.9
			c0.3-0.6,1.7-2.8,3.7-5.6c-3.3-1.5-8.9-3-12.4,0.7c-5.8,6.2-5.9,13.1-0.3,21.3c5.5,8,15.9,12.9,20.6,14.8
			c5.2-11.7,11.2-21.1,11.6-21.7c1.3-1.9,3.8-2.5,5.7-1.2c1.9,1.3,2.4,3.9,1.2,5.8c-0.2,0.3-16.8,26.1-17.6,44
			c-0.6,14.1,9.5,45.9,43.5,48.5c49,3.8,81.8-28.2,93.6-42.1c17.2-20.3,14-41.4,9.4-50.7c-3.7-7.4,1.3-12.2,6.6-17.3
			c4-3.9,9.1-8.8,13.7-16.8C204,52.7,200.8,31,192.6,18.3z M49.9,54.1c12.9,6.5,21.8,20.3,25.2,38.9c0,0.1,0,0.2,0.1,0.3l7.3-5.6
			C78.1,68.4,68,53.9,53.6,46.6C40,39.8,31.4,25,31.3,24.8c-1.2-2-3.7-2.7-5.7-1.5c-2,1.2-2.7,3.7-1.5,5.7
			C24.5,29.7,34,46.1,49.9,54.1z"/>
	</g>
</g>
</svg>
