<!-- <?xml version="1.0" encoding="utf-8"?> -->
<!-- Generator: Adobe Illustrator 16.0.0, SVG Export Plug-In . SVG Version: 6.00 Build 0)  -->
<!-- <!DOCTYPE svg PUBLIC "-//W3C//DTD SVG 1.1//EN" "http://www.w3.org/Graphics/SVG/1.1/DTD/svg11.dtd"> -->
<svg version="1.1" xmlns="http://www.w3.org/2000/svg" xmlns:xlink="http://www.w3.org/1999/xlink" x="0px" y="0px"
	 width="200px" height="200px" viewBox="0 0 200 200" style="enable-background:new 0 0 200 200;" xml:space="preserve">
<path d="M146.9,14.9c30.1,0,53.1,24.4,53.1,56.7c0,8.4-1.7,16.2-4.8,23.7h-44.7l-10.1-20.2c-2-4-8.5-4-10.5,0l-18.2,36.4l-6.5-13
	c-2-4-8.5-4-10.5,0l-6.5,13L70.1,75.1c-2-4-8.5-4-10.5,0L49.5,95.3H4.8C1.7,87.8,0,80.1,0,71.6c0-32.4,23.1-56.7,53.1-56.7
	c23.7,0,38.9,16.4,46.9,31.2C108,31.3,123.2,14.9,146.9,14.9 M142.9,97.2l-6.7-13.4l-18.8,37.5c-1,2-3.1,3.3-5.4,3.3
	c-2.3,0-4.4-1.3-5.4-3.3L100,108l-6.7,13.4c-2.1,4.1-8.8,4.1-10.8,0L63.8,83.9l-6.7,13.4c-1,2-3.1,3.3-5.4,3.3H8.2
	C20.6,120.1,43,138.7,71,162.3c7.9,6.6,16.2,13.7,25,21.3c1.1,1,2.5,1.5,4,1.5c1.4,0,2.8-0.5,4-1.5c8.8-7.6,17.1-14.7,25-21.3
	c28-23.6,50.4-42.2,62.8-61.8h-43.5C146,100.6,143.9,99.3,142.9,97.2"/>
</svg>
