<?xml version="1.0" encoding="utf-8"?>
<!-- Generator: Adobe Illustrator 16.0.0, SVG Export Plug-In . SVG Version: 6.00 Build 0)  -->
<!DOCTYPE svg PUBLIC "-//W3C//DTD SVG 1.1//EN" "http://www.w3.org/Graphics/SVG/1.1/DTD/svg11.dtd">
<svg version="1.1" id="圖層_1" xmlns="http://www.w3.org/2000/svg" xmlns:xlink="http://www.w3.org/1999/xlink" x="0px" y="0px"
	 width="13.8px" height="13.8px" viewBox="0 0 13.8 13.8" style="enable-background:new 0 0 13.8 13.8;" xml:space="preserve">
<path d="M6.9,0C3.1,0,0,3.1,0,6.9c0,3.8,3.1,6.9,6.9,6.9c3.8,0,6.9-3.1,6.9-6.9C13.8,3.1,10.7,0,6.9,0 M7.6,10
	c0,0.3-0.1,0.5-0.2,0.7c-0.1,0.1-0.3,0.2-0.5,0.2c-0.2,0-0.4-0.1-0.5-0.2c-0.1-0.2-0.2-0.4-0.2-0.6V5.9c0-0.3,0.1-0.5,0.2-0.6
	C6.5,5.1,6.7,5,6.9,5c0.2,0,0.4,0.1,0.5,0.2c0.1,0.1,0.2,0.3,0.2,0.6V10z M7.4,4.2C7.3,4.3,7.1,4.4,6.9,4.4c-0.2,0-0.4-0.1-0.5-0.2
	C6.3,4.1,6.2,3.9,6.2,3.7c0-0.2,0.1-0.4,0.2-0.5C6.6,3,6.7,3,6.9,3C7.1,3,7.3,3,7.4,3.1c0.1,0.1,0.2,0.3,0.2,0.5
	C7.6,3.9,7.6,4.1,7.4,4.2"/>
</svg>
