<?xml version="1.0" encoding="utf-8"?>
<!-- Generator: Adobe Illustrator 16.0.0, SVG Export Plug-In . SVG Version: 6.00 Build 0)  -->
<!DOCTYPE svg PUBLIC "-//W3C//DTD SVG 1.1//EN" "http://www.w3.org/Graphics/SVG/1.1/DTD/svg11.dtd">
<svg version="1.1" id="圖層_1" xmlns="http://www.w3.org/2000/svg" xmlns:xlink="http://www.w3.org/1999/xlink" x="0px" y="0px"
	 width="24.267px" height="19.229px" viewBox="0 0 24.267 19.229" enable-background="new 0 0 24.267 19.229" xml:space="preserve">
<g>
	<path d="M4.38,3.479l0.03-0.003l0.941,11.106h15.506L24.267,2.75H6.315L6.025,0H0v2h4.225L4.38,3.479z M21.608,4.75l-2.257,7.833
		H7.189L6.526,4.75H21.608z"/>
	<circle cx="5.572" cy="17.364" r="1.865"/>
	<circle cx="19.738" cy="17.364" r="1.865"/>
	<rect x="7.823" y="6.417" width="1.583" height="1.583"/>
	<rect x="10.406" y="6.417" width="1.583" height="1.583"/>
	<rect x="12.99" y="6.417" width="1.583" height="1.583"/>
	<rect x="18.156" y="6.417" width="1.583" height="1.583"/>
	<rect x="15.573" y="6.417" width="1.583" height="1.583"/>
	<rect x="7.823" y="9.333" width="1.583" height="1.583"/>
	<rect x="10.406" y="9.333" width="1.583" height="1.583"/>
	<rect x="12.99" y="9.333" width="1.583" height="1.583"/>
	<rect x="18.156" y="9.333" width="1.583" height="1.583"/>
	<rect x="15.573" y="9.333" width="1.583" height="1.583"/>
</g>
</svg>
