<!-- <?xml version="1.0" encoding="utf-8"?> -->
<!-- Generator: Adobe Illustrator 16.0.0, SVG Export Plug-In . SVG Version: 6.00 Build 0)  -->
<!-- <!DOCTYPE svg PUBLIC "-//W3C//DTD SVG 1.1//EN" "http://www.w3.org/Graphics/SVG/1.1/DTD/svg11.dtd"> -->
<svg version="1.1" xmlns="http://www.w3.org/2000/svg" xmlns:xlink="http://www.w3.org/1999/xlink" x="0px" y="0px"
	 width="43.598px" height="43.6px" viewBox="0 0 43.598 43.6" enable-background="new 0 0 43.598 43.6" xml:space="preserve">
<path d="M43.106,11.298c-0.653-0.655-1.717-0.655-2.371,0c-0.448,0.448-0.982,0.802-1.564,1.078l-7.947-7.949
	c0.276-0.58,0.629-1.115,1.078-1.563c0.654-0.655,0.654-1.717,0-2.372c-0.655-0.655-1.717-0.655-2.371,0
	c-2.953,2.952-3.306,7.767-2.813,11.906c-10.392-1.229-16.048,3.506-14.721,14.72c-4.137-0.493-8.953-0.14-11.905,2.813
	c-0.655,0.652-0.655,1.716,0,2.37c0.654,0.654,1.717,0.654,2.37,0c0.45-0.448,0.984-0.803,1.566-1.077l7.947,7.945
	c-0.279,0.59-0.634,1.121-1.078,1.566c-0.654,0.655-0.654,1.716,0,2.372c0.655,0.653,1.717,0.653,2.372,0
	c2.952-2.953,3.306-7.768,2.813-11.907c10.39,1.229,16.044-3.505,14.72-14.719c4.132,0.491,8.951,0.139,11.904-2.813
	C43.762,13.014,43.762,11.952,43.106,11.298z M13.272,35.324l-4.997-4.998c1.564-0.103,3.228,0.018,4.743,0.266
	C13.227,31.833,13.392,33.572,13.272,35.324z M15.87,27.729c-0.249-1.524-0.366-3.188-0.263-4.735l4.996,4.997
	C19.044,28.096,17.386,27.976,15.87,27.729z M24.451,27.096l-7.948-7.948c0.573-1.204,1.377-2.041,2.644-2.645l7.948,7.948
	C26.521,25.655,25.718,26.492,24.451,27.096z M27.99,20.604l-4.997-4.996c1.56-0.104,3.219,0.015,4.733,0.262
	C27.977,17.394,28.094,19.057,27.99,20.604z M30.59,13.008c-0.25-1.522-0.367-3.186-0.264-4.732l4.996,4.996
	C33.764,13.375,32.104,13.256,30.59,13.008z"/>
</svg>
