<!-- <?xml version="1.0" encoding="utf-8"?> -->
<!-- Generator: Adobe Illustrator 16.0.0, SVG Export Plug-In . SVG Version: 6.00 Build 0)  -->
<!-- <!DOCTYPE svg PUBLIC "-//W3C//DTD SVG 1.1//EN" "http://www.w3.org/Graphics/SVG/1.1/DTD/svg11.dtd"> -->
<svg version="1.1" xmlns="http://www.w3.org/2000/svg" xmlns:xlink="http://www.w3.org/1999/xlink" x="0px" y="0px"
	 width="200px" height="200px" viewBox="0 0 200 200" style="enable-background:new 0 0 200 200;" xml:space="preserve">
<path d="M184,36H16C7.2,36,0,43.2,0,52V148c0,8.8,7.1,16,16,16H184c8.9,0,16-7.2,16-16V52C200,43.1,192.9,36,184,36z M180,44
	l-80,69.6L20,44H180z M10.5,153.8C9,152.4,8,150.3,8,147.9V52.1c0-2.3,1-4.4,2.5-5.9L72.4,100L10.5,153.8z M20,156l58.4-50.8
	L100,124l21.6-18.8L180,156H20z M192,147.9c0,2.3-1,4.4-2.5,5.9L127.6,100l61.9-53.8c1.5,1.5,2.5,3.6,2.5,5.9V147.9z"/>
</svg>
