<!-- <?xml version="1.0" encoding="utf-8"?> -->
<!-- Generator: Adobe Illustrator 16.0.0, SVG Export Plug-In . SVG Version: 6.00 Build 0)  -->
<!-- <!DOCTYPE svg PUBLIC "-//W3C//DTD SVG 1.1//EN" "http://www.w3.org/Graphics/SVG/1.1/DTD/svg11.dtd"> -->
<svg version="1.1" xmlns="http://www.w3.org/2000/svg" xmlns:xlink="http://www.w3.org/1999/xlink" x="0px" y="0px"
	 width="373.121px" height="388.801px" viewBox="0 0 373.121 388.801" enable-background="new 0 0 373.121 388.801"
	 xml:space="preserve">
<path d="M185.922,90.879c-53.281,0.402-95.684,43.519-95.121,96.801c0.238,25.359,10.398,48.398,26.719,65.359
	c12.64,13.039,20.878,30,23.679,47.84c1.121,7.68,7.84,13.281,15.602,13.281h59.438c7.84,0,14.48-5.681,15.684-13.359
	c2.719-17.84,10.879-34.563,23.52-47.68c16.637-17.199,26.879-40.642,26.879-66.48C282.32,133.52,239.121,90.48,185.922,90.879"/>
<path d="M219.922,328.719h-66.801c-6.082,0-10.961,4.883-10.961,10.961v11.359c0,9.121,6.641,16.563,15.36,17.922l2.718,10.32
	c1.524,5.598,6.563,9.52,12.403,9.52h27.757c5.84,0,10.883-3.922,12.402-9.52l2.801-10.32c8.637-1.281,15.277-8.801,15.277-17.84
	v-11.359C230.879,333.68,226,328.801,219.922,328.719"/>
<path d="M318.48,54.641c-4.242-4.243-11.039-4.243-15.281,0l-26.801,26.8c-4.238,4.239-4.238,11.039,0,15.278
	c2.16,2.082,4.883,3.121,7.68,3.121c2.723,0,5.523-1.039,7.602-3.121l26.801-26.797C322.719,65.68,322.719,58.879,318.48,54.641"/>
<path d="M186.559,59.441c5.922,0,10.801-4.8,10.801-10.8v-37.84C197.359,4.879,192.559,0,186.559,0c-6,0-10.796,4.801-10.796,10.801
	v37.84C175.762,54.641,180.641,59.441,186.559,59.441"/>
<path d="M362.32,175.762h-37.84c-5.922,0-10.801,4.797-10.801,10.797c0,5.921,4.801,10.8,10.801,10.8h37.84
	c5.918,0,10.801-4.8,10.801-10.8C373.121,180.641,368.32,175.762,362.32,175.762"/>
<path d="M48.641,175.762h-37.84C4.879,175.762,0,180.559,0,186.559c0,5.921,4.801,10.8,10.801,10.8h37.84c6,0,10.8-4.8,10.8-10.8
	C59.441,180.641,54.641,175.762,48.641,175.762"/>
<path d="M96.641,81.359l-26.801-26.8c-4.238-4.239-11.039-4.239-15.281,0c-4.239,4.242-4.239,11.043,0,15.281l26.882,26.801
	c2.079,2.078,4.879,3.121,7.598,3.121c2.723,0,5.52-1.043,7.602-3.121C100.879,92.398,100.879,85.602,96.641,81.359"/>
<rect fill="none" width="373.121" height="388.801"/>
</svg>
