<!-- <?xml version="1.0" encoding="utf-8"?> -->
<!-- Generator: Adobe Illustrator 16.0.0, SVG Export Plug-In . SVG Version: 6.00 Build 0)  -->
<!-- <!DOCTYPE svg PUBLIC "-//W3C//DTD SVG 1.1//EN" "http://www.w3.org/Graphics/SVG/1.1/DTD/svg11.dtd"> -->
<svg version="1.1" xmlns="http://www.w3.org/2000/svg" xmlns:xlink="http://www.w3.org/1999/xlink" x="0px" y="0px"
	 width="50px" height="50px" viewBox="0 0 50 50" enable-background="new 0 0 50 50" xml:space="preserve">
<path fill="#666666" d="M38.152,22.374H16.45v-9.871c0-4.718,3.836-8.556,8.55-8.556c4.713,0,8.549,3.838,8.549,8.556v3.949
	c0,1.09,0.884,1.974,1.973,1.974c1.092,0,1.973-0.884,1.973-1.974v-3.949C37.494,5.609,31.89,0,25,0S12.504,5.609,12.504,12.503
	v9.871h-0.658c-1.816,0-3.289,1.473-3.289,3.291v21.057c0,1.817,1.473,3.291,3.289,3.291h26.306c1.814,0,3.289-1.474,3.289-3.291
	V25.665C41.441,23.847,39.967,22.374,38.152,22.374z M21.053,33.561c0-2.18,1.767-3.947,3.946-3.947
	c2.178,0,3.946,1.768,3.946,3.947c0,1.461-0.794,2.735-1.973,3.419v5.794h-3.946v-5.794C21.848,36.296,21.053,35.021,21.053,33.561z
	"/>
</svg>
