<?xml version="1.0" encoding="utf-8"?>
<!-- Generator: Adobe Illustrator 16.0.0, SVG Export Plug-In . SVG Version: 6.00 Build 0)  -->
<!DOCTYPE svg PUBLIC "-//W3C//DTD SVG 1.1//EN" "http://www.w3.org/Graphics/SVG/1.1/DTD/svg11.dtd">
<svg version="1.1" id="圖層_1" xmlns="http://www.w3.org/2000/svg" xmlns:xlink="http://www.w3.org/1999/xlink" x="0px" y="0px"
	 width="50px" height="50px" viewBox="0 0 50 50" enable-background="new 0 0 50 50" xml:space="preserve">
<path fill="#424143" d="M25-0.006c-8.571,0-15.544,6.973-15.544,15.542c0,2.17,0.449,4.236,1.254,6.115
	c0.021,0.067,0.036,0.136,0.067,0.201L23.716,49.21c0.232,0.492,0.729,0.809,1.276,0.809s1.044-0.316,1.277-0.809l12.939-27.358
	c0.012-0.025,0.016-0.054,0.025-0.082c0.84-1.909,1.311-4.017,1.311-6.234C40.544,6.967,33.57-0.006,25-0.006z M25,25.192
	c-5.323,0-9.655-4.332-9.655-9.657c0-5.323,4.332-9.654,9.655-9.654c5.324,0,9.654,4.331,9.654,9.654
	C34.654,20.861,30.324,25.192,25,25.192z"/>
</svg>
