<?xml version="1.0" encoding="utf-8"?>
<!-- Generator: Adobe Illustrator 21.1.0, SVG Export Plug-In . SVG Version: 6.00 Build 0)  -->
<svg version="1.1" id="member" xmlns="http://www.w3.org/2000/svg" xmlns:xlink="http://www.w3.org/1999/xlink" x="0px" y="0px"
	 viewBox="0 0 30 30" style="enable-background:new 0 0 30 30;" xml:space="preserve">
<path d="M17.8,6.5c1.4,0.9,2.4,2.4,2.6,4.1c0.6,0.3,1.2,0.4,1.9,0.4c2.5,0,4.5-2,4.5-4.5c0-2.5-2-4.5-4.5-4.5
	C19.9,2.1,17.9,4.1,17.8,6.5 M15.2,15.7c2.5,0,4.5-2,4.5-4.5c0-2.5-2-4.5-4.5-4.5c-2.5,0-4.5,2-4.5,4.5
	C10.7,13.7,12.7,15.7,15.2,15.7 M17.1,16h-3.8c-3.2,0-5.8,2.6-5.8,5.8v4.7l0,0.1l0.3,0.1c3,0.9,5.7,1.3,7.8,1.3
	c4.2,0,6.7-1.2,6.8-1.3l0.3-0.2h0v-4.7C22.9,18.6,20.3,16,17.1,16 M24.2,11.4h-3.8c0,1.5-0.7,2.9-1.7,3.9c2.8,0.8,4.9,3.5,4.9,6.5
	v1.4c3.7-0.1,5.9-1.2,6-1.3l0.3-0.2h0v-4.7C30,14,27.4,11.4,24.2,11.4 M7.7,11.1c0.9,0,1.7-0.3,2.4-0.7c0.2-1.4,1-2.7,2.1-3.6
	c0-0.1,0-0.2,0-0.3c0-2.5-2-4.5-4.5-4.5c-2.5,0-4.5,2-4.5,4.5C3.2,9.1,5.2,11.1,7.7,11.1 M11.7,15.3c-1-1-1.7-2.3-1.7-3.8
	c-0.1,0-0.3,0-0.4,0H5.8C2.6,11.4,0,14,0,17.2v4.7l0,0.1L0.3,22c2.4,0.8,4.6,1.1,6.5,1.2v-1.4C6.8,18.7,8.9,16.1,11.7,15.3"/>
</svg>
