<!-- <?xml version="1.0" encoding="utf-8"?> -->
<!-- Generator: Adobe Illustrator 16.0.0, SVG Export Plug-In . SVG Version: 6.00 Build 0)  -->
<!-- <!DOCTYPE svg PUBLIC "-//W3C//DTD SVG 1.1//EN" "http://www.w3.org/Graphics/SVG/1.1/DTD/svg11.dtd"> -->
<svg version="1.1" xmlns="http://www.w3.org/2000/svg" xmlns:xlink="http://www.w3.org/1999/xlink" x="0px" y="0px"
	 width="49.103px" height="50px" viewBox="0 0 49.103 50" enable-background="new 0 0 49.103 50" xml:space="preserve">
<g>
	<g>
		<path fill="#585959" d="M31.916,27.007h-14.73C7.71,27.007,0,34.718,0,44.193v4.911h49.103v-4.911
			C49.103,34.718,41.393,27.007,31.916,27.007z M4.909,44.193c0-6.768,5.507-12.274,12.277-12.274h14.73
			c6.768,0,12.277,5.507,12.277,12.274H4.909z M24.551,24.551c6.767,0,12.275-5.507,12.275-12.274S31.318,0,24.551,0
			c-6.77,0-12.277,5.509-12.277,12.277S17.782,24.551,24.551,24.551z M24.551,4.911c4.061,0,7.365,3.305,7.365,7.366
			c0,4.063-3.304,7.367-7.365,7.367c-4.062,0-7.365-3.304-7.365-7.367C17.186,8.215,20.49,4.911,24.551,4.911z"/>
	</g>
</g>
</svg>
