<?xml version="1.0" encoding="utf-8"?>
<!-- Generator: Adobe Illustrator 16.0.0, SVG Export Plug-In . SVG Version: 6.00 Build 0)  -->
<!DOCTYPE svg PUBLIC "-//W3C//DTD SVG 1.1//EN" "http://www.w3.org/Graphics/SVG/1.1/DTD/svg11.dtd">
<svg version="1.1" id="圖層_1" xmlns="http://www.w3.org/2000/svg" xmlns:xlink="http://www.w3.org/1999/xlink" x="0px" y="0px"
	 width="36px" height="36px" viewBox="0 0 36 36" style="enable-background:new 0 0 36 36;" xml:space="preserve">
<path d="M18,0C8.1,0,0,8.1,0,18c0,9.9,8.1,18,18,18c9.9,0,18-8.1,18-18C36,8.1,27.9,0,18,0z M19.8,30.4h-3.4v-3.5h3.4V30.4z
	 M24.1,16c-0.8,1.2-1.8,2.4-3.1,3.7c-0.6,0.6-1,1.1-1.1,1.6c-0.1,0.5-0.2,1.2-0.2,2.2h-3.3c0-1.6,0.2-2.7,0.4-3.4
	c0.3-0.6,1-1.5,2.1-2.5c1.1-1.3,1.9-2.3,2.4-3s0.7-1.6,0.7-2.5c0-1.2-0.3-2.1-0.9-2.7c-0.6-0.6-1.5-1-2.7-1c-1,0-1.9,0.3-2.6,0.8
	c-0.7,0.6-1.1,1.4-1.1,2.4h-3.1l-0.1-0.1c0-1.8,0.6-3.2,1.9-4.3c1.3-1.1,3-1.6,5-1.6c2.2,0,3.9,0.6,5.1,1.7c1.2,1.1,1.8,2.7,1.8,4.7
	C25.3,13.5,24.9,14.8,24.1,16z"/>
</svg>
