<!-- <?xml version="1.0" encoding="utf-8"?> -->
<!-- Generator: Adobe Illustrator 16.0.0, SVG Export Plug-In . SVG Version: 6.00 Build 0)  -->
<!-- <!DOCTYPE svg PUBLIC "-//W3C//DTD SVG 1.1//EN" "http://www.w3.org/Graphics/SVG/1.1/DTD/svg11.dtd"> -->
<svg version="1.1" xmlns="http://www.w3.org/2000/svg" xmlns:xlink="http://www.w3.org/1999/xlink" x="0px" y="0px"
	 width="50px" height="50px" viewBox="0 0 50 50" enable-background="new 0 0 50 50" xml:space="preserve">
<path fill-rule="evenodd" clip-rule="evenodd" fill="#283D5C" d="M49.427,23.025c-0.455-6.89-3.871-13.325-9.279-17.594
	C34.736,1.16,27.677-0.605,20.844,0.535C8.659,2.641-0.281,13.914,0.572,26.328c0.4,5.978,2.905,11.501,7.118,15.713
	c-1.082,1.595-2.049,2.621-4.612,4.669c-0.511,0.398-0.74,1.026-0.569,1.65c0.115,0.626,0.569,1.139,1.14,1.313
	c0.853,0.282,2.105,0.397,3.529,0.397c3.018,0,6.833-0.685,9.794-2.222c3.929,1.367,8.145,1.709,12.3,0.97
	C41.457,46.654,50.281,35.324,49.427,23.025z M26.584,36.79c-0.518,0.475-1.114,0.712-1.79,0.712c-0.7,0-1.313-0.235-1.833-0.705
	c-0.522-0.47-0.784-1.125-0.784-1.969c0-0.751,0.252-1.381,0.757-1.892c0.503-0.51,1.125-0.767,1.86-0.767
	c0.724,0,1.331,0.257,1.823,0.767c0.494,0.511,0.74,1.141,0.74,1.892C27.357,35.659,27.102,36.313,26.584,36.79z M33.014,20.272
	c-0.396,0.761-0.865,1.419-1.412,1.972c-0.543,0.552-1.522,1.483-2.935,2.792c-0.392,0.369-0.703,0.693-0.937,0.971
	c-0.237,0.281-0.413,0.536-0.525,0.767c-0.115,0.232-0.204,0.466-0.27,0.698c-0.062,0.229-0.158,0.638-0.281,1.222
	c-0.219,1.236-0.902,1.854-2.05,1.854c-0.596,0-1.099-0.203-1.507-0.606c-0.408-0.404-0.612-1.006-0.612-1.802
	c0-1,0.149-1.864,0.448-2.596c0.297-0.731,0.693-1.373,1.188-1.926c0.492-0.553,1.158-1.21,1.997-1.972
	c0.733-0.665,1.265-1.168,1.594-1.507c0.325-0.338,0.602-0.715,0.824-1.133c0.226-0.416,0.338-0.868,0.338-1.355
	c0-0.952-0.343-1.754-1.025-2.408c-0.684-0.653-1.564-0.98-2.644-0.98c-1.263,0-2.193,0.33-2.789,0.99
	c-0.597,0.66-1.102,1.631-1.515,2.917c-0.39,1.343-1.131,2.015-2.221,2.015c-0.643,0-1.187-0.235-1.628-0.705
	c-0.441-0.47-0.661-0.978-0.661-1.525c0-1.13,0.35-2.274,1.05-3.433c0.7-1.16,1.721-2.12,3.064-2.881
	c1.343-0.761,2.91-1.141,4.7-1.141c1.666,0,3.135,0.317,4.409,0.954c1.272,0.637,2.259,1.501,2.953,2.596
	c0.694,1.094,1.039,2.282,1.039,3.567C33.607,18.625,33.412,19.512,33.014,20.272z"/>
</svg>
