<!-- <?xml version="1.0" encoding="utf-8"?> -->
<!-- Generator: Adobe Illustrator 16.0.0, SVG Export Plug-In . SVG Version: 6.00 Build 0)  -->
<!-- <!DOCTYPE svg PUBLIC "-//W3C//DTD SVG 1.1//EN" "http://www.w3.org/Graphics/SVG/1.1/DTD/svg11.dtd"> -->
<svg version="1.1" xmlns="http://www.w3.org/2000/svg" xmlns:xlink="http://www.w3.org/1999/xlink" x="0px" y="0px"
	 width="128px" height="127.999px" viewBox="0 0 128 127.999" enable-background="new 0 0 128 127.999" xml:space="preserve">
<path fill="#565656" d="M109.671,10.018v80.368c0,5.045-4.71,8.59-9.589,7.314c-13.13-3.431-26.947-17.813-49.783-17.813H22.896
	c-15.134,0-22.836-14.561-22.836-29.694c0-15.133,7.702-29.676,22.836-29.676h27.402c22.836,0,36.653-14.384,49.783-17.814
	C104.961,1.427,109.671,4.973,109.671,10.018"/>
<path fill="#565656" d="M62.666,111.856c-2.609-6.3-12.117-11.392-13.193-20.392c-0.473-3.997-3.86-7.012-7.884-7.012H22.896
	l4.566,28.313c1.904,9.559,4.567,12.793,13.701,12.793h17.395C63.942,125.559,65.37,118.382,62.666,111.856"/>
<path fill="#565656" d="M114.237,34.217v31.97c7.565,0,13.702-4.567,13.702-13.701v-4.567
	C127.939,38.784,121.803,34.217,114.237,34.217"/>
<rect fill="none" width="128" height="127.999"/>
</svg>
