<!-- <?xml version="1.0" encoding="utf-8"?> -->
<!-- Generator: Adobe Illustrator 16.0.0, SVG Export Plug-In . SVG Version: 6.00 Build 0)  -->
<!-- <!DOCTYPE svg PUBLIC "-//W3C//DTD SVG 1.1//EN" "http://www.w3.org/Graphics/SVG/1.1/DTD/svg11.dtd"> -->
<svg version="1.1" xmlns="http://www.w3.org/2000/svg" xmlns:xlink="http://www.w3.org/1999/xlink" x="0px" y="0px"
	 width="49.103px" height="47.955px" viewBox="0 0 49.103 47.955" enable-background="new 0 0 49.103 47.955" xml:space="preserve">
<g>
	<g>
		<path fill="#797A7A" d="M12.274,33.984v-5.291H6.135c-1.127,0-2.044-0.918-2.044-2.045V6.192c0-1.127,0.917-2.047,2.044-2.047
			h30.687c1.128,0,2.047,0.92,2.047,2.047v2.045h4.091V6.192c0-3.387-2.754-6.138-6.138-6.138H6.135C2.751,0.054,0,2.806,0,6.192
			v20.456c0,3.387,2.751,6.137,6.135,6.137h2.046v11.078l11.077-11.078h1.197v-4.092h-2.893L12.274,33.984z M42.959,10.283h-14.32
			c-3.383,0-6.137,2.754-6.137,6.136v16.366c0,3.387,2.754,6.137,6.137,6.137h5.29l9.03,9.033v-9.033
			c3.385,0,6.137-2.75,6.137-6.137V16.419C49.096,13.037,46.344,10.283,42.959,10.283z M45.005,32.785
			c0,1.131-0.916,2.047-2.046,2.047h-4.091v3.246l-3.246-3.246h-6.983c-1.128,0-2.045-0.916-2.045-2.047V16.419
			c0-1.126,0.917-2.044,2.045-2.044h14.32c1.13,0,2.046,0.918,2.046,2.044V32.785z"/>
	</g>
</g>
</svg>
