<!-- <?xml version="1.0" encoding="utf-8"?> -->
<!-- Generator: Adobe Illustrator 16.0.0, SVG Export Plug-In . SVG Version: 6.00 Build 0)  -->
<!-- <!DOCTYPE svg PUBLIC "-//W3C//DTD SVG 1.1//EN" "http://www.w3.org/Graphics/SVG/1.1/DTD/svg11.dtd"> -->
<svg version="1.1" xmlns="http://www.w3.org/2000/svg" xmlns:xlink="http://www.w3.org/1999/xlink" x="0px" y="0px"
	 width="49.103px" height="47.955px" viewBox="0 0 49.103 47.955" enable-background="new 0 0 49.103 47.955" xml:space="preserve">
<g>
	<g>
		<path fill="#707070" d="M35.776,23.826l3.678-0.625c-0.577-3.374-2.174-6.427-4.594-8.855c-2.561-2.557-5.801-4.169-9.366-4.666
			l-0.518,3.69c2.76,0.389,5.269,1.632,7.253,3.61C34.104,18.852,35.329,21.222,35.776,23.826z M41.526,7.87
			C37.28,3.631,31.91,0.955,25.981,0.128l-0.518,3.69c5.121,0.716,9.765,3.034,13.432,6.688c3.478,3.472,5.76,7.857,6.587,12.683
			l3.676-0.626C48.192,16.972,45.551,11.898,41.526,7.87z M37.681,31.758c-1.564-1.543-3.519-1.543-5.072,0
			c-1.187,1.174-2.372,2.348-3.537,3.541c-0.32,0.328-0.589,0.396-0.978,0.177c-0.768-0.416-1.585-0.756-2.321-1.212
			c-3.438-2.159-6.318-4.935-8.867-8.059c-1.267-1.552-2.393-3.214-3.18-5.083c-0.159-0.38-0.128-0.628,0.18-0.937
			c1.185-1.144,2.341-2.318,3.507-3.492c1.625-1.632,1.625-3.541-0.01-5.184c-0.926-0.935-1.853-1.849-2.779-2.784
			c-0.958-0.957-1.905-1.921-2.871-2.866c-1.565-1.524-3.518-1.524-5.072,0.008C5.485,7.042,4.34,8.247,3.124,9.401
			C1.998,10.466,1.43,11.77,1.31,13.291c-0.189,2.477,0.418,4.817,1.275,7.093C4.34,25.1,7.01,29.289,10.248,33.13
			c4.375,5.192,9.596,9.302,15.703,12.266c2.752,1.335,5.601,2.357,8.698,2.528c2.135,0.119,3.987-0.42,5.471-2.081
			c1.018-1.133,2.165-2.168,3.24-3.252c1.595-1.612,1.604-3.561,0.019-5.154C41.486,35.538,39.583,33.646,37.681,31.758z"/>
	</g>
</g>
</svg>
