<!-- <?xml version="1.0" encoding="utf-8"?> -->
<!-- Generator: Adobe Illustrator 16.0.0, SVG Export Plug-In . SVG Version: 6.00 Build 0)  -->
<!-- <!DOCTYPE svg PUBLIC "-//W3C//DTD SVG 1.1//EN" "http://www.w3.org/Graphics/SVG/1.1/DTD/svg11.dtd"> -->
<svg version="1.1" xmlns="http://www.w3.org/2000/svg" xmlns:xlink="http://www.w3.org/1999/xlink" x="0px" y="0px"
	 width="200px" height="200px" viewBox="0 0 200 200" style="enable-background:new 0 0 200 200;" xml:space="preserve">
<path d="M125.1,0H74.9c-8,0-14.5,6.5-14.5,14.5c0,6.7,4.6,12.5,11,14.1v142.9c0,15.8,12.8,28.6,28.6,28.6
	c15.8,0,28.6-12.8,28.6-28.6V28.5c6.4-1.6,11-7.4,11-14.1C139.6,6.5,133.1,0,125.1,0 M100,190.4c-10.5,0-19-8.5-19-19V84.5h38v86.9
	C119,181.9,110.5,190.4,100,190.4 M119,74.9H81V29h38V74.9z M74.9,19.4c-2.7,0-4.9-2.2-4.9-4.9c0-2.7,2.2-4.9,4.9-4.9h50.2
	c2.7,0,4.9,2.2,4.9,4.9c0,2.7-2.2,4.9-4.9,4.9H74.9z M108.9,134.4c-2.6,0-4.8-2.4-4.8-5.3V103c0-2.9,2.1-5.3,4.8-5.3
	c2.6,0,4.8,2.4,4.8,5.3v26.1C113.7,132,111.6,134.4,108.9,134.4 M108.9,136.8c2.8,0,5,2.2,5,5c0,2.7-2.2,5-5,5c-2.7,0-5-2.2-5-5
	C103.9,139,106.2,136.8,108.9,136.8"/>
</svg>
