<?xml version="1.0" encoding="utf-8"?>
<!-- Generator: Adobe Illustrator 16.0.0, SVG Export Plug-In . SVG Version: 6.00 Build 0)  -->
<!DOCTYPE svg PUBLIC "-//W3C//DTD SVG 1.1//EN" "http://www.w3.org/Graphics/SVG/1.1/DTD/svg11.dtd">
<svg version="1.1" id="Layer_1" xmlns="http://www.w3.org/2000/svg" xmlns:xlink="http://www.w3.org/1999/xlink" x="0px" y="0px"
	 width="24px" height="24px" viewBox="0 0 24 24" enable-background="new 0 0 24 24" xml:space="preserve">
<path d="M12,0C5.373,0,0,5.373,0,12c0,6.627,5.373,12,12,12c6.627,0,12-5.373,12-12C24,5.373,18.627,0,12,0z M16.412,16.709
	l-0.35,0.35c-0.291,0.291-0.782,0.305-1.088,0.029l-4.521-3.955c-0.308-0.275-0.541-0.838-0.521-1.25l0.419-7.134
	C10.374,4.336,10.729,4,11.142,4h0.493c0.413,0,0.767,0.336,0.787,0.748l0.344,5.934c0.021,0.413,0.262,1,0.534,1.309l3.144,3.628
	C16.717,15.928,16.704,16.418,16.412,16.709z"/>
</svg>
