<?xml version="1.0" encoding="utf-8"?>
<!-- Generator: Adobe Illustrator 16.0.0, SVG Export Plug-In . SVG Version: 6.00 Build 0)  -->
<!DOCTYPE svg PUBLIC "-//W3C//DTD SVG 1.1//EN" "http://www.w3.org/Graphics/SVG/1.1/DTD/svg11.dtd">
<svg version="1.1" id="Layer_1" xmlns="http://www.w3.org/2000/svg" xmlns:xlink="http://www.w3.org/1999/xlink" x="0px" y="0px"
	 width="46.101px" height="46.101px" viewBox="0 0 46.101 46.101" enable-background="new 0 0 46.101 46.101" xml:space="preserve">
<path d="M39.63,25.492c-0.557-0.926-1.204-1.667-2.037-2.129c-0.834-0.463-1.667-0.926-2.686-1.204
	c-0.186-0.092-0.371-0.185-0.463-0.185c-0.094,0-0.187-0.093-0.277-0.185c-0.094-0.093-0.094-0.186-0.094-0.278
	c0-0.186,0.094-0.371,0.094-0.556c0.74-2.037,0.74-3.519,0-4.63c-0.834-1.018-2.131-1.574-3.982-1.574
	c-1.851,0-3.98,0.463-6.389,1.481l-0.185,0.092c-0.093,0-0.278,0.093-0.371,0.093c-0.092,0-0.278,0-0.37,0
	c-0.185,0-0.185-0.093-0.278-0.185c-0.093-0.185-0.093-0.278,0-0.556c0.741-2.5,0.556-4.259-0.556-5.37
	C20.74,9.01,18.61,9.01,15.647,10.12c-2.963,1.204-5.926,3.241-8.796,6.111c-2.222,2.225-3.888,4.447-5.092,6.669
	C0.555,25.121,0,27.252,0,29.195c0,1.854,0.556,3.611,1.667,5.186s2.592,2.871,4.444,3.889c1.852,1.021,3.889,1.854,6.204,2.408
	s4.722,0.834,7.13,0.834c2.407,0,4.723-0.279,6.945-0.834c2.221-0.557,4.166-1.203,5.832-2.129c1.668-0.928,3.148-1.945,4.353-3.057
	s2.13-2.314,2.778-3.52c0.646-1.203,0.926-2.406,0.926-3.609C40.276,27.344,40.185,26.418,39.63,25.492z M28.89,35.121
	c-2.5,2.037-5.742,3.242-9.538,3.611c-2.593,0.186-4.907,0.094-7.13-0.555c-2.222-0.557-3.981-1.482-5.37-2.779
	c-1.389-1.203-2.13-2.684-2.315-4.352c-0.278-2.5,0.926-4.814,3.426-6.852c2.5-2.037,5.74-3.24,9.537-3.61
	c2.593-0.186,4.908-0.093,7.13,0.555c2.223,0.556,3.98,1.481,5.369,2.778c1.391,1.204,2.131,2.686,2.314,4.352
	C32.499,30.77,31.39,33.086,28.89,35.121z"/>
<path d="M24.259,27.529c-0.833-1.48-2.129-2.594-4.074-3.056c-1.852-0.463-3.704-0.369-5.463,0.462
	c-1.759,0.834-3.055,2.037-3.889,3.611c-0.833,1.574-0.926,3.242-0.185,4.814c0.648,1.574,1.944,2.686,3.796,3.24
	c1.852,0.648,3.796,0.557,5.741-0.277c1.944-0.832,3.333-2.129,4.074-3.889C24.999,30.678,24.999,29.104,24.259,27.529z
	 M17.314,32.807c-0.37,0.557-0.926,1.02-1.667,1.297c-0.741,0.188-1.389,0.188-1.945-0.092c-0.555-0.279-0.926-0.742-1.111-1.297
	c-0.093-0.557,0-1.203,0.371-1.76c0.37-0.557,0.926-0.926,1.574-1.203s1.296-0.277,1.852,0c0.648,0.277,1.019,0.646,1.204,1.297
	C17.777,31.604,17.685,32.252,17.314,32.807z M19.722,29.658c-0.092,0.186-0.277,0.371-0.555,0.557
	c-0.278,0.092-0.463,0.092-0.741,0c-0.556-0.277-0.648-0.648-0.371-1.203c0.093-0.186,0.278-0.371,0.556-0.463
	c0.278-0.094,0.463-0.094,0.741,0c0.278,0.092,0.37,0.184,0.463,0.463C19.907,29.195,19.814,29.475,19.722,29.658z"/>
<path d="M42.963,8.085c1.481,1.667,2.5,3.611,2.87,5.74c0.463,2.223,0.277,4.26-0.371,6.204c-0.186,0.463-0.463,0.833-0.832,1.019
	c-0.463,0.185-0.834,0.277-1.39,0.092c-0.464-0.185-0.833-0.463-1.019-0.833c-0.187-0.463-0.277-0.833-0.093-1.389
	c0.463-1.389,0.556-2.87,0.277-4.444c-0.278-1.574-1.019-2.871-2.037-4.074c-1.111-1.204-2.313-2.037-3.798-2.5
	c-1.479-0.463-2.963-0.556-4.442-0.185c-0.463,0.093-0.927,0-1.39-0.278c-0.37-0.278-0.647-0.648-0.741-1.111
	c-0.092-0.463,0-0.926,0.278-1.296c0.277-0.371,0.647-0.648,1.111-0.741c2.129-0.463,4.258-0.371,6.295,0.278
	C39.722,5.214,41.481,6.418,42.963,8.085z"/>
<path d="M35.74,10.585c1.019,0.277,1.853,0.926,2.593,1.667c0.74,0.741,1.203,1.759,1.389,2.778
	c0.187,1.019,0.187,2.037-0.186,3.056c-0.092,0.37-0.369,0.648-0.74,0.833c-0.37,0.185-0.74,0.185-1.111,0.093
	c-0.369-0.093-0.647-0.371-0.832-0.741c-0.186-0.371-0.186-0.741-0.094-1.111c0.371-1.111,0.094-2.037-0.648-2.87
	c-0.74-0.835-1.666-1.113-2.777-0.928c-0.371,0.093-0.834,0-1.203-0.185c-0.371-0.185-0.557-0.556-0.648-0.926
	c-0.092-0.371,0-0.833,0.187-1.111c0.185-0.37,0.556-0.555,0.927-0.648C33.703,10.214,34.722,10.308,35.74,10.585z"/>
</svg>
