<!-- <?xml version="1.0" encoding="utf-8"?> -->
<!-- Generator: Adobe Illustrator 16.0.0, SVG Export Plug-In . SVG Version: 6.00 Build 0)  -->
<!-- <!DOCTYPE svg PUBLIC "-//W3C//DTD SVG 1.1//EN" "http://www.w3.org/Graphics/SVG/1.1/DTD/svg11.dtd"> -->
<svg version="1.1" xmlns="http://www.w3.org/2000/svg" xmlns:xlink="http://www.w3.org/1999/xlink" x="0px" y="0px"
	 width="49.103px" height="50px" viewBox="0 0 49.103 50" enable-background="new 0 0 49.103 50" xml:space="preserve">
<path fill="#766262" d="M47.751,41.965L37.115,31.334c-0.054-0.058-0.123-0.098-0.181-0.149c2.094-3.175,3.313-6.975,3.313-11.061
	C40.247,9.011,31.239,0,20.124,0C9.011,0,0,9.011,0,20.124c0,11.116,9.008,20.124,20.124,20.124c4.086,0,7.886-1.223,11.061-3.313
	c0.052,0.062,0.092,0.127,0.149,0.181l10.631,10.636c1.599,1.598,4.188,1.598,5.786,0C49.349,46.156,49.349,43.563,47.751,41.965z
	 M20.124,33.275c-7.261,0-13.148-5.891-13.148-13.152S12.862,6.976,20.124,6.976s13.149,5.887,13.149,13.148
	S27.385,33.275,20.124,33.275z"/>
</svg>
